<?xml version="1.0" encoding="utf-8"?>
<!DOCTYPE svg PUBLIC "-//W3C//DTD SVG 1.1//EN" "http://www.w3.org/Graphics/SVG/1.1/DTD/svg11.dtd">
<svg version="1.1" id="kf-drc-logo" xmlns="http://www.w3.org/2000/svg" xmlns:xlink="http://www.w3.org/1999/xlink" x="0px" y="0px"
	 width="645.751px" height="239.081px" viewBox="0 0 645.751 239.081" enable-background="new 0 0 645.751 239.081"
	 xml:space="preserve">
<g>
	<g>
		<path fill="#F6921E" d="M348.475,29.443c1.361-1.031,2.771-1.916,4.27-2.574c1.504-0.657,3.078-1.085,4.865-1.264
			c-1.245,0.126-2.531,0.176-3.864,0.16c-2.46-0.032-4.646,0.438-6.673,1.33c-2.028,0.885-3.875,2.178-5.608,3.648
			c-1.337-1.848-2.841-3.573-4.941-4.854c-2.097-1.261-4.842-2.135-8.562-1.805c-1.999,0.188-4.059,0.541-6.102,1.107
			c-1.891,0.522-3.519,1.337-4.834,2.293c-0.332,0.236-0.64,0.492-0.934,0.742c-0.271,0.245-0.526,0.495-0.766,0.75
			c-0.48,0.511-0.897,1.04-1.261,1.581c-1.452,2.169-2.015,4.472-2.268,6.744c-2.267-0.394-4.581-0.503-6.732-0.276
			c-1.074,0.11-2.104,0.296-3.064,0.543c-0.962,0.25-1.848,0.559-2.717,0.955l-0.326,0.145l0.001-0.001l-0.429,0.176
			c-0.691,0.271-1.388,0.486-2.125,0.655l0.013-0.003l-0.359,0.078c-1.852,0.375-3.212,1.034-4.748,1.968
			c-1.513,0.927-3.141,2.089-4.886,3.306c-0.981-1.896-1.942-3.706-3.416-5.299c-1.479-1.581-3.498-3.007-6.713-3.89l0.065,0.016
			c-0.896-0.242-1.823-0.468-2.773-0.669c-0.476-0.102-0.958-0.196-1.445-0.284l-1.38-0.229l-0.04-0.006l-0.075-0.012l0.037,0.007
			c-3.231-0.492-6.011-0.032-8.31,0.984c-2.304,1.017-4.133,2.585-5.643,4.351c-1.745-1.556-3.798-2.882-6.349-3.522
			c-2.535-0.639-5.611-0.573-8.963,0.741c-1.805,0.708-3.545,1.512-5.212,2.376c-3.088,1.612-4.976,3.659-6.165,5.784
			c-1.188,2.135-1.691,4.386-1.955,6.656c-2.259-0.412-4.55-0.592-6.848-0.222c-1.149,0.185-2.3,0.507-3.449,1.004
			c-0.57,0.244-1.158,0.547-1.712,0.872c-0.507,0.285-1.009,0.606-1.502,0.959c-1.066,0.761-2.112,1.437-3.066,1.955
			c-0.884,0.482-1.503,0.928-1.954,1.404c-0.453,0.473-0.741,0.983-1.053,1.565c-0.309,0.579-0.661,1.23-1.18,1.89
			c-0.514,0.659-1.189,1.319-2,1.919c-0.541-1.97-0.668-3.838-1.37-5.579c-1.396-3.466-4.596-6.569-4.7-6.657
			c-0.212-0.179-0.434-0.369-0.682-0.555c-0.378-0.289-1.727-0.784-1.869-0.795c-0.357-0.032-0.717,0.003-1.033,0.077l-0.816,0.198
			c-0.542,0.129-1.095,0.262-1.649,0.432c-0.277,0.084-0.554,0.179-0.829,0.286c-0.135,0.052-0.275,0.112-0.417,0.174l-0.384,0.182
			l-1.497,0.712l-3.007,1.433c-1.001,0.463-2.008,0.884-3.055,1.232c-1.011,0.355-2.13-0.015-3.203-0.257
			c-1.418-0.319-2.617-0.087-3.313,0.053c-1.076,0.217-0.188,0.902-1.092,0.241c0.862,0.714-0.036-0.123,1.065,0.053
			c1.11,0.17,1.41,0.058,2.527,0.145c0.509,0.032,1.923,0.585,2.441,0.558c0.667,0.091,1.242,0.251,1.846,0.5
			c0.717,0.338,1.432,0.737,1.941,1.287c0.534,0.578,0.933,1.246,1.25,1.956c0.315,0.708,0.535,1.458,0.655,2.215
			c0.057,0.363,0.093,0.784,0.16,1.195c0.063,0.411,0.143,0.823,0.248,1.234c0.212,0.82,0.523,1.646,1.039,2.407
			c2.202,3.243,6.886,3.481,7.008,3.49c2.436,0.309,4.891-0.067,6.949-1.013c0.551,1.075,1.317,2.12,2.379,3.01
			c1.054,0.89,2.41,1.616,3.977,2.025c1.561,0.412,3.316,0.503,5.065,0.24c1.755-0.26,3.5-0.86,5.146-1.764
			c1.778-0.978,3.365-2.024,4.857-3.092c0.69-0.496,1.299-1.006,1.84-1.527c0.519-0.504,0.92-0.968,1.31-1.468
			c0.764-0.986,1.343-2.004,1.79-3.046c0.89-2.085,1.25-4.273,1.473-6.513c2.217,0.443,4.415,0.74,6.583,0.62
			c2.173-0.117,4.294-0.649,6.467-1.779c1.18-0.608,2.355-1.144,3.534-1.605c2.176-0.843,3.729-1.949,5.154-3.356
			c1.416-1.397,2.677-3.075,4.006-4.84c1.539,1.551,3.016,3.027,4.693,4.197c1.681,1.173,3.56,2.035,6.043,2.459l-0.326-0.042
			l1.039,0.164l0.476,0.081l0.443,0.083c0.596,0.119,1.203,0.257,1.83,0.419l0.026,0.005l0.488,0.13l-0.246-0.072
			c2.326,0.564,4.695,0.609,7.012,0.145c2.312-0.458,4.53-1.425,6.518-2.688c1.196,2.082,2.802,4.073,5.331,5.443
			c2.496,1.361,6.022,2.043,10.056,1.104c2.131-0.495,4.269-1.23,6.261-2.15c1.848-0.854,3.297-1.911,4.393-2.99
			c1.1-1.085,1.863-2.198,2.41-3.298c1.088-2.206,1.365-4.382,1.548-6.604c2.197,0.446,4.306,0.817,6.258,0.944
			c0.489,0.031,0.969,0.045,1.444,0.042l1.341-0.041c0.829-0.035,1.624-0.156,2.497-0.392c0.945-0.255,1.95-0.431,3.044-0.529
			c2.013-0.18,3.926-0.779,5.784-1.749c1.855-0.962,3.625-2.287,5.33-3.76c1.311,1.846,2.751,3.58,4.739,4.922
			c1.988,1.329,4.549,2.307,8.086,2.353c1.905,0.017,3.875-0.054,5.881-0.267c-2.892,0.297-5.276-0.122-7.211-0.889
			c-1.94-0.772-3.455-1.898-4.732-3.184l-1.741-2.006c-0.834-1.084-1.586-2.223-2.33-3.363c0.995-0.923,1.987-1.847,2.996-2.72
			l-0.003,0.022C346.593,30.959,348.475,29.443,348.475,29.443 M202.36,58.464c0.362,1.044,0.459,2.188,0.513,3.295
			c0.054,1.128,0.228,2.663-0.7,3.527c-0.903,0.841-5.822,1.729-6.929,1.665c-1.485-0.085-3.612-0.657-4.592-1.834
			c-0.449-0.533-0.786-1.208-1.042-1.924c-0.129-0.359-0.237-0.73-0.333-1.108l-0.271-1.18c-0.21-0.82-0.523-1.602-0.931-2.332
			c-0.406-0.726-0.915-1.414-1.53-1.966c-0.651-0.58-1.416-0.9-2.175-1.182c-0.453-0.161-0.914-0.243-1.376-0.3
			c0.4-0.049,0.8-0.114,1.193-0.226c1.081-0.29,2.15-0.664,3.192-1.073l3.087-1.256l1.553-0.629l0.377-0.153
			c0.116-0.042,0.234-0.085,0.36-0.125c0.248-0.08,0.502-0.15,0.76-0.213c0.517-0.125,1.05-0.222,1.596-0.319l0.812-0.146
			c0.227-0.039,0.428-0.04,0.623-0.012c3.041,0.431,4.367,4.097,4.509,4.416C201.509,56.405,201.998,57.416,202.36,58.464
			 M227.598,59.134l-0.32,2.596c-0.139,0.81-0.321,1.612-0.565,2.402c-0.122,0.394-0.259,0.787-0.415,1.175
			c-0.077,0.195-0.16,0.389-0.247,0.581c-0.094,0.198-0.204,0.404-0.317,0.605c0,0-1.254,1.79-1.235,1.812
			c-0.543,0.669-1.186,1.326-1.952,1.956c-0.719,0.35-1.443,0.637-2.172,0.86c-0.628,0.181-2.236,0.496-2.236,0.496
			c-2.058,0.278-4.082,0.063-5.864-0.572l-2.6-1.334c-1.335-0.929-2.362-2.115-3.078-3.37c0.658-0.625,1.203-1.309,1.656-2.01
			c0.421-1.019,1.553-3.174,1.553-3.174c0.463-1.18,0.868-2.274,1.502-3.311c0,0,0.88-1.056,0.799-1.127
			c0.29-0.354,0.545-0.639,1.066-0.963c1.301-0.788,3.472-1.068,3.472-1.068c0.369-0.05,0.795-0.129,1.209-0.182
			c0.415-0.053,0.83-0.089,1.245-0.11c0.828-0.041,1.657-0.024,2.486,0.039l2.623,0.326c1.207,0.202,2.408,0.461,3.605,0.73
			C227.751,56.71,227.699,57.929,227.598,59.134 M251.084,48.522c-0.778,1.254-3.701,4.605-3.701,4.605
			c-0.389,0.339-0.808,0.662-1.263,0.972c-0.622,0.163-1.239,0.282-1.854,0.363c-0.256,0.01-1.695,0.129-1.695,0.129
			c-1.501,0.035-3.017-0.129-4.555-0.413c0,0-5.052-1.195-6.349-1.524c0.108-1.328,1.1-6.578,1.1-6.578
			c0.504-1.592,1.254-3.151,2.423-4.605c0,0,1.853-2.32,3.642-3.156c1.688-0.628,4.566-0.716,4.566-0.716
			c1.933,0.021,7.24,0.66,11.14,5.184C253.744,44.001,251.084,48.522,251.084,48.522 M283.486,46.856
			c-1.066,0.704-2.163,1.386-3.279,2.012c-2.15,2.033-8.349,3.029-8.352,3.065c-0.696,0.097-1.387,0.152-2.083,0.155
			c-0.21-0.091-0.412-0.185-0.609-0.284l-0.291-0.151l-1.778-1.013c-1.151-0.77-2.157-1.681-3.109-2.684l-1.612-1.817
			c-1.002-1.191-1.991-2.448-3.06-3.672c0.889-1.089,4.96-4.996,6.177-5.585c1.184-0.574,5.004-1.691,5.654-1.69
			c-0.008-0.018,0.73-0.097,1.123-0.093c0.402,0.004,0.809,0.025,1.22,0.062c0.888,0.3,2.529,1.129,2.595,1.164
			c0.61,0.328,1.662,1.172,1.662,1.172c0.943,0.783,3.238,3.584,3.588,4.139C281.767,42.326,283.051,45.856,283.486,46.856
			 M311.246,45.289l-0.021-0.026c-0.018,0.255-0.041,0.508-0.072,0.755c-0.079,0.658-0.254,1.275-0.497,1.868l0.01,0.015
			c-0.981,3.259-3.804,5.753-4.376,6.126c0.009,0.01-1.652,1.173-2.661,1.636c-2.138,0.552-4.628,0.312-4.628,0.312
			c-5.473-0.68-7.31-3.228-7.567-3.55c-1.387-1.336-2.441-2.872-3.336-4.431c1.461-1.22,2.767-2.527,3.951-3.758l1.462-1.525
			c0.814-0.833,1.587-1.593,2.44-2.252c0,0,1.55-1.064,1.793-1.197c0.586-0.074,3.439-0.161,4.292-0.093
			c0.793,0.064,4.889-0.049,9.528,1.772C311.507,42.388,311.453,43.834,311.246,45.289 M336.187,35.722
			c-1.48,1.855-3.553,3.433-5.522,4.699c-0.426,0.274-2.117,1.151-2.577,1.339c-0.468-0.019-2.681-0.437-2.681-0.437
			c-0.577-0.156-1.165-0.345-1.775-0.554c-0.61-0.205-1.227-0.439-1.929-0.649l-2.287-0.752c-1.3-0.433-2.652-0.872-4.042-1.255
			c0.124-1.429,0.31-2.876,0.685-4.307c0,0,0.139-1.409,0.521-2.151c0.27-0.524,0.598-1.011,0.955-1.477
			c0.703-1.165,1.672-2.289,2.904-3.244c0,0,2.499-1.877,4.517-2.275c1.96-0.337,4.96,0.579,4.96,0.579
			c1.828,0.593,3.292,1.537,4.533,2.635c0,0,1.645,1.452,2.233,2.324c0.077,0.114,1.495,2.099,2.097,2.999L336.187,35.722z"/>
		<path fill="#FD9D6F" d="M309.479,42.956l-0.291-0.406c-0.136,0.198-0.308,0.379-0.517,0.529c-0.24,0.172-0.502,0.285-0.77,0.347
			l0.314,0.436c0.05,0.07,0.022,0.175-0.061,0.234c-0.012,0.008-0.023,0.012-0.034,0.017l3.074,4.2
			c0.2,0.279,0.722,0.246,1.167-0.073c0.446-0.319,0.645-0.803,0.445-1.082l-3.072-4.198c-0.005,0.004-0.008,0.009-0.013,0.013
			C309.638,43.033,309.529,43.025,309.479,42.956"/>
		<path fill="#B86966" d="M304.679,39.326l1.133,1.563l1.805,2.521l0.04,0.055l0.463,0.647c0.012-0.005,0.023-0.009,0.035-0.017
			c0.083-0.059,0.11-0.164,0.061-0.234l-0.314-0.436c0.268-0.061,0.529-0.175,0.77-0.347c0.209-0.149,0.381-0.33,0.517-0.528
			l0.291,0.405c0.05,0.07,0.158,0.078,0.242,0.017c0.004-0.003,0.008-0.009,0.013-0.012l-0.43-0.6l-0.077-0.108l-1.841-2.569
			C307.387,39.683,305.02,39.297,304.679,39.326"/>
		<g opacity="0.38">
			<g>
				<defs>
					<rect id="SVGID_1_" x="305.155" y="39.795" width="6.663" height="8.437"/>
				</defs>
				<clipPath id="SVGID_2_">
					<use xlink:href="#SVGID_1_"  overflow="visible"/>
				</clipPath>
				<path clip-path="url(#SVGID_2_)" fill="#FFFFFF" d="M305.904,39.877l5.915,8.255c-0.253,0.181-0.613,0.107-0.809-0.165
					l-5.855-8.172L305.904,39.877z"/>
			</g>
		</g>
		<path fill="#FD9D6F" d="M347.8,35.197l0.062-0.495c-0.235,0.053-0.484,0.069-0.74,0.037c-0.293-0.037-0.561-0.131-0.8-0.268
			l-0.065,0.533c-0.012,0.085-0.103,0.143-0.204,0.131c-0.015-0.002-0.024-0.007-0.036-0.011l-0.235,1.955l1.737,2.014l0.466-3.719
			c-0.006-0.001-0.012,0.001-0.019,0C347.862,35.361,347.787,35.282,347.8,35.197"/>
		<path fill="#B86966" d="M346.93,28.167l-0.422,3.023l-0.386,3.077l-0.008,0.067l-0.099,0.79c0.012,0.004,0.021,0.009,0.035,0.011
			c0.104,0.012,0.193-0.046,0.204-0.131l0.067-0.533c0.238,0.137,0.506,0.232,0.799,0.268c0.256,0.032,0.505,0.016,0.74-0.037
			l-0.062,0.495c-0.012,0.086,0.064,0.164,0.165,0.177c0.008,0.001,0.014,0,0.02,0l0.092-0.732l0.016-0.132l0.394-3.135l0.414-2.961
			c0.043-0.341-0.367-0.604-0.91-0.673C347.445,27.672,346.973,27.827,346.93,28.167"/>
		<g opacity="0.38">
			<g>
				<defs>
					<rect id="SVGID_3_" x="345.93" y="27.96" width="1.691" height="9.663"/>
				</defs>
				<clipPath id="SVGID_4_">
					<use xlink:href="#SVGID_3_"  overflow="visible"/>
				</clipPath>
				<path clip-path="url(#SVGID_4_)" fill="#FFFFFF" d="M347.621,27.964l-1.211,9.659l-0.48-0.663l1.059-8.465
					C347.03,28.163,347.312,27.925,347.621,27.964"/>
			</g>
		</g>
		<path fill="#FD9D6F" d="M235.651,50.759l-0.267-0.4c-0.144,0.192-0.323,0.365-0.538,0.508c-0.245,0.164-0.509,0.271-0.776,0.327
			l0.288,0.429c0.046,0.069,0.013,0.171-0.072,0.228c-0.01,0.007-0.023,0.011-0.034,0.016l2.882,4.336
			c0.183,0.274,0.701,0.249,1.157-0.055c0.455-0.305,0.676-0.774,0.492-1.048l-2.881-4.333c-0.003,0.003-0.008,0.009-0.012,0.012
			C235.804,50.837,235.696,50.828,235.651,50.759"/>
		<path fill="#B86966" d="M232.242,48.901l1.547,2.274l0.036,0.055l0.427,0.637c0.011-0.005,0.023-0.008,0.033-0.016
			c0.086-0.057,0.119-0.158,0.073-0.227l-0.288-0.43c0.266-0.056,0.531-0.163,0.776-0.327c0.214-0.142,0.394-0.316,0.538-0.508
			l0.267,0.4c0.045,0.069,0.153,0.078,0.238,0.02c0.005-0.003,0.009-0.009,0.013-0.012l-0.394-0.59l-0.071-0.107l-1.691-2.53
			l-0.98-1.464L232.242,48.901z"/>
		<g opacity="0.38">
			<g>
				<defs>
					<rect id="SVGID_5_" x="232.336" y="48.011" width="5.621" height="8.313"/>
				</defs>
				<clipPath id="SVGID_6_">
					<use xlink:href="#SVGID_5_"  overflow="visible"/>
				</clipPath>
				<path clip-path="url(#SVGID_6_)" fill="#FFFFFF" d="M232.477,48.011l5.48,8.221c-0.258,0.173-0.61,0.095-0.79-0.173
					l-4.831-7.251L232.477,48.011z"/>
			</g>
		</g>
		<path fill="#FD9D6F" d="M264.381,43.148l0.046-0.478c-0.233,0.056-0.481,0.078-0.737,0.053c-0.294-0.028-0.566-0.113-0.808-0.238
			L262.833,43c-0.007,0.082-0.097,0.14-0.2,0.13c-0.012-0.001-0.024-0.005-0.036-0.009l-0.473,5.222
			c-0.032,0.329,0.385,0.637,0.931,0.689c0.545,0.052,1.013-0.171,1.044-0.5l0.472-5.219c-0.005,0-0.012,0.002-0.018,0.001
			C264.451,43.304,264.374,43.23,264.381,43.148"/>
		<path fill="#B86966" d="M263.006,38.84l-0.046,0.48l-0.284,2.973l-0.007,0.065l-0.072,0.763c0.012,0.004,0.024,0.009,0.036,0.01
			c0.103,0.009,0.193-0.049,0.2-0.131l0.049-0.515c0.242,0.126,0.514,0.21,0.808,0.238c0.256,0.025,0.504,0.003,0.737-0.053
			l-0.046,0.478c-0.007,0.082,0.07,0.156,0.172,0.166c0.006,0.001,0.013-0.001,0.018-0.001l0.069-0.707l0.012-0.127l0.29-3.03
			l0.221-2.349C265.194,36.772,263.006,38.84,263.006,38.84"/>
		<g opacity="0.38">
			<g>
				<defs>
					<rect id="SVGID_7_" x="262.294" y="38.311" width="1.433" height="9.712"/>
				</defs>
				<clipPath id="SVGID_8_">
					<use xlink:href="#SVGID_7_"  overflow="visible"/>
				</clipPath>
				<path clip-path="url(#SVGID_8_)" fill="#FFFFFF" d="M263.728,38.312l-0.929,9.712c-0.308-0.03-0.532-0.313-0.501-0.634
					l0.811-8.495L263.728,38.312z"/>
			</g>
		</g>
		<path fill="#FD9D6F" d="M226.218,57.461l-0.301-0.375c-0.127,0.205-0.29,0.393-0.491,0.555c-0.229,0.185-0.483,0.315-0.744,0.394
			l0.325,0.402c0.051,0.064,0.028,0.169-0.051,0.233c-0.01,0.008-0.022,0.013-0.033,0.019l2.378,2.95l0.313-2.682l-1.145-1.511
			c-0.003,0.004-0.007,0.011-0.012,0.014C226.377,57.524,226.27,57.525,226.218,57.461"/>
		<path fill="#B86966" d="M220.841,53.598l1.686,2.118l1.874,2.325l0.041,0.052l0.481,0.596c0.011-0.006,0.022-0.01,0.033-0.019
			c0.079-0.064,0.102-0.169,0.051-0.233l-0.325-0.402c0.261-0.079,0.514-0.209,0.744-0.394c0.201-0.162,0.364-0.35,0.491-0.554
			l0.301,0.374c0.052,0.065,0.159,0.064,0.239-0.001c0.005-0.003,0.009-0.009,0.012-0.014l-0.445-0.553l-0.08-0.099l-1.91-2.37
			l-1.648-2.072c-0.208-0.256-0.676-0.139-1.103,0.204C220.856,52.899,220.633,53.341,220.841,53.598"/>
		<g opacity="0.38">
			<g>
				<defs>
					<rect id="SVGID_9_" x="220.965" y="53.017" width="6.335" height="8.342"/>
				</defs>
				<clipPath id="SVGID_10_">
					<use xlink:href="#SVGID_9_"  overflow="visible"/>
				</clipPath>
				<path clip-path="url(#SVGID_10_)" fill="#FFFFFF" d="M221.169,53.017l6.131,7.607l-0.126,0.735l-6.075-7.537
					C220.896,53.571,220.928,53.211,221.169,53.017"/>
			</g>
		</g>
		<path fill="#FD9D6F" d="M251.764,43.922l-0.109-0.467c-0.203,0.129-0.432,0.228-0.683,0.287c-0.287,0.068-0.572,0.076-0.84,0.035
			l0.118,0.503c0.019,0.08-0.046,0.164-0.147,0.188c-0.012,0.003-0.024,0.002-0.037,0.003l0.976,4.139
			c0.363-0.577,1.464-2.442,1.464-2.442l-0.509-2.15c-0.005,0.001-0.011,0.005-0.016,0.007
			C251.88,44.048,251.783,44.003,251.764,43.922"/>
		<path fill="#B86966" d="M248.706,38.715l0.482,2.04l0.687,2.906l0.015,0.064l0.176,0.746c0.013-0.001,0.025,0.001,0.037-0.003
			c0.101-0.023,0.166-0.107,0.147-0.187l-0.118-0.503c0.268,0.04,0.553,0.032,0.84-0.035c0.252-0.059,0.48-0.159,0.683-0.288
			l0.109,0.468c0.019,0.081,0.116,0.126,0.217,0.103c0.005-0.002,0.011-0.006,0.017-0.008l-0.164-0.691l-0.029-0.124l-0.7-2.962
			l-0.467-1.983c-0.077-0.321-0.55-0.418-1.083-0.292C249.021,38.092,248.63,38.394,248.706,38.715"/>
		<g opacity="0.38">
			<g>
				<defs>
					<rect id="SVGID_11_" x="248.83" y="38.147" width="2.675" height="10.124"/>
				</defs>
				<clipPath id="SVGID_12_">
					<use xlink:href="#SVGID_11_"  overflow="visible"/>
				</clipPath>
				<path clip-path="url(#SVGID_12_)" fill="#FFFFFF" d="M249.258,38.147l2.247,9.512l-0.431,0.612l-2.228-9.428
					C248.773,38.529,248.958,38.218,249.258,38.147"/>
			</g>
		</g>
		<path fill="#FD9D6F" d="M299.539,48.88l-0.135-0.703c-0.199,0.159-0.428,0.27-0.681,0.319c-0.29,0.056-0.58,0.025-0.857-0.076
			l0.147,0.755c0.023,0.121-0.041,0.234-0.141,0.254c-0.014,0.002-0.026-0.001-0.039-0.002l1.308,6.59
			c1.042,0.113,1.66,0.11,1.993-0.042l-1.352-6.92c-0.006,0.002-0.011,0.006-0.017,0.008C299.664,49.082,299.562,49,299.539,48.88"
			/>
		<path fill="#B86966" d="M296.111,40.379l0.642,3.468l0.844,4.364l0.018,0.096l0.217,1.12c0.013,0.001,0.026,0.004,0.039,0.002
			c0.1-0.02,0.164-0.133,0.141-0.254l-0.147-0.755c0.277,0.101,0.567,0.132,0.857,0.076c0.253-0.049,0.482-0.16,0.681-0.319
			l0.135,0.703c0.024,0.12,0.125,0.202,0.226,0.183c0.007-0.002,0.011-0.006,0.017-0.008l-0.2-1.038l-0.036-0.187l-0.861-4.447
			l-0.625-3.381c-0.094-0.482-0.582-0.696-1.12-0.592C296.402,39.514,296.018,39.897,296.111,40.379"/>
		<g opacity="0.38">
			<g>
				<defs>
					<rect id="SVGID_13_" x="296.286" y="40.035" width="3.461" height="15.879"/>
				</defs>
				<clipPath id="SVGID_14_">
					<use xlink:href="#SVGID_13_"  overflow="visible"/>
				</clipPath>
				<path clip-path="url(#SVGID_14_)" fill="#FFFFFF" d="M296.696,40.035l3.051,15.771c0,0-0.509,0.324-0.599-0.148l-2.838-14.665
					C296.219,40.521,296.393,40.094,296.696,40.035"/>
			</g>
		</g>
		<path fill="#FD9D6F" d="M245.438,44.157l0.26,0.682c-0.254-0.032-0.508-0.008-0.748,0.084c-0.276,0.105-0.505,0.287-0.686,0.521
			l-0.28-0.733c-0.044-0.117-0.158-0.182-0.254-0.145c-0.013,0.004-0.021,0.014-0.032,0.021l-2.578-6.758
			c-0.178-0.468,1.675-1.174,1.854-0.707l2.577,6.754c-0.006,0.002-0.013,0.001-0.019,0.003
			C245.437,43.915,245.395,44.04,245.438,44.157"/>
		<path fill="#B86966" d="M247.102,53.356l-1.34-3.354l-1.614-4.234l-0.035-0.094l-0.414-1.087c0.01-0.007,0.019-0.017,0.032-0.021
			c0.096-0.037,0.21,0.028,0.254,0.145l0.28,0.733c0.181-0.234,0.41-0.416,0.686-0.521c0.24-0.091,0.494-0.115,0.748-0.084
			l-0.26-0.682c-0.045-0.117-0.002-0.241,0.094-0.278c0.006-0.002,0.013-0.001,0.019-0.002l0.383,1.006l0.069,0.182l1.645,4.315
			l0.894,2.349C248.542,51.729,247.908,52.741,247.102,53.356"/>
		<g opacity="0.38">
			<g>
				<defs>
					<rect id="SVGID_15_" x="241.242" y="37.419" width="6.122" height="15.43"/>
				</defs>
				<clipPath id="SVGID_16_">
					<use xlink:href="#SVGID_15_"  overflow="visible"/>
				</clipPath>
				<path clip-path="url(#SVGID_16_)" fill="#FFFFFF" d="M247.364,52.331l-5.686-14.911c0,0-0.577,0.056-0.403,0.514l5.634,14.779
					C247.084,53.17,247.364,52.331,247.364,52.331"/>
			</g>
		</g>
		<path fill="#FB5C0F" d="M275.667,43.743l-0.19,0.69c-0.187-0.173-0.406-0.303-0.654-0.371c-0.285-0.078-0.577-0.069-0.861,0.01
			l0.205-0.742c0.032-0.118-0.021-0.236-0.122-0.263c-0.012-0.004-0.024-0.002-0.037-0.002l1.879-6.841
			c0.391,0.191,1.375,0.836,1.752,1.22l-1.717,6.144c-0.006-0.002-0.01-0.008-0.017-0.009
			C275.806,43.551,275.699,43.625,275.667,43.743"/>
		<path fill="#882D00" d="M271.671,51.554l0.828-3.008l1.181-4.286l0.026-0.094l0.302-1.1c0.013,0,0.025-0.002,0.038,0.001
			c0.1,0.028,0.153,0.146,0.121,0.263l-0.204,0.743c0.283-0.08,0.575-0.089,0.86-0.011c0.248,0.069,0.467,0.198,0.654,0.372
			l0.19-0.691c0.032-0.118,0.139-0.191,0.238-0.164c0.007,0.002,0.011,0.007,0.017,0.009l-0.28,1.019l-0.051,0.184l-1.202,4.367
			l-0.805,2.922c-0.13,0.474-0.634,0.649-1.162,0.504C271.894,52.438,271.541,52.028,271.671,51.554"/>
		<g opacity="0.38">
			<g>
				<defs>
					<rect id="SVGID_17_" x="271.789" y="36.391" width="4.649" height="15.95"/>
				</defs>
				<clipPath id="SVGID_18_">
					<use xlink:href="#SVGID_17_"  overflow="visible"/>
				</clipPath>
				<path clip-path="url(#SVGID_18_)" fill="#FFFFFF" d="M272.146,52.341l4.292-15.612l-0.475-0.338l-4.127,14.966
					C271.709,51.82,271.848,52.259,272.146,52.341"/>
			</g>
		</g>
		<path fill="#FD9D6F" d="M270.055,42.511l-0.113,0.707c-0.206-0.152-0.437-0.257-0.691-0.298c-0.292-0.046-0.581-0.005-0.854,0.105
			l0.121-0.761c0.02-0.121-0.046-0.232-0.148-0.248c-0.013-0.003-0.025,0.001-0.038,0.003l1.033-6.435
			c0.635-0.262,1.433-0.5,2.079-0.467l-1.152,7.212c-0.007-0.002-0.011-0.006-0.018-0.007
			C270.172,42.305,270.074,42.39,270.055,42.511"/>
		<path fill="#B86966" d="M266.936,50.711l0.495-3.081l0.704-4.389l0.016-0.096l0.181-1.126c0.012-0.002,0.024-0.006,0.038-0.003
			c0.101,0.016,0.168,0.127,0.148,0.248l-0.122,0.76c0.273-0.109,0.563-0.15,0.854-0.104c0.254,0.041,0.486,0.145,0.691,0.297
			l0.114-0.706c0.019-0.121,0.116-0.206,0.218-0.19c0.007,0.001,0.012,0.006,0.018,0.008l-0.167,1.043l-0.03,0.189l-0.718,4.472
			l-0.544,3.577c-0.058,0.204-0.683,0.166-1.224,0.08C267.067,51.604,266.858,51.196,266.936,50.711"/>
		<g opacity="0.38">
			<g>
				<defs>
					<rect id="SVGID_19_" x="267.096" y="35.438" width="2.987" height="15.913"/>
				</defs>
				<clipPath id="SVGID_20_">
					<use xlink:href="#SVGID_19_"  overflow="visible"/>
				</clipPath>
				<path clip-path="url(#SVGID_20_)" fill="#FFFFFF" d="M267.528,51.352l2.555-15.914l-0.621,0.339l-2.349,14.63
					C267.036,50.88,267.223,51.303,267.528,51.352"/>
			</g>
		</g>
		<path fill="#FB5C0F" d="M239.075,47.387l0.148,0.277c-0.22,0.21-0.365,0.485-0.427,0.788l1.05,1.968l2.668,4.975
			c0.232,0.435,1.983-0.499,1.751-0.933l-2.551-4.757l-1.283-2.406c-0.268-0.044-0.542-0.016-0.797,0.094l-0.126-0.236
			c-0.076-0.144-0.235-0.207-0.355-0.144C239.034,47.077,239,47.244,239.075,47.387"/>
		<path fill="#882D00" d="M235.133,41.542l3.664,6.91c0.061-0.303,0.207-0.578,0.426-0.788l-0.148-0.277
			c-0.075-0.143-0.041-0.31,0.079-0.374s0.279,0,0.354,0.143l0.126,0.237c0.255-0.11,0.53-0.139,0.797-0.094l-3.673-6.89
			c-0.073-0.136-0.179-0.243-0.306-0.319C236.044,40.431,235.133,41.542,235.133,41.542"/>
		<g opacity="0.38">
			<g>
				<defs>
					<rect id="SVGID_21_" x="235.285" y="41.249" width="7.849" height="13.991"/>
				</defs>
				<clipPath id="SVGID_22_">
					<use xlink:href="#SVGID_21_"  overflow="visible"/>
				</clipPath>
				<path clip-path="url(#SVGID_22_)" fill="#FFFFFF" d="M235.703,41.25l7.431,13.946c-0.273,0.146-0.676-0.078-0.903-0.503
					l-6.945-13.027L235.703,41.25z"/>
			</g>
		</g>
		<path fill="#FB5C0F" d="M303.234,45.857l0.137,0.276c-0.226,0.203-0.381,0.471-0.453,0.767l0.974,1.965l2.43,4.89
			c0.215,0.434,0.744,0.507,1.234,0.263c0.491-0.244,0.759-0.711,0.544-1.144l-2.322-4.673l-1.19-2.401
			c-0.266-0.049-0.54-0.027-0.798,0.075l-0.117-0.236c-0.07-0.142-0.226-0.209-0.348-0.149
			C303.204,45.55,303.163,45.715,303.234,45.857"/>
		<path fill="#882D00" d="M299.078,39.199l3.84,7.702c0.072-0.297,0.227-0.565,0.453-0.767l-0.137-0.277
			c-0.071-0.142-0.03-0.306,0.092-0.366c0.121-0.061,0.277,0.006,0.348,0.148l0.116,0.236c0.258-0.102,0.533-0.124,0.798-0.075
			l-3.273-6.634C300.591,38.965,299.658,39.137,299.078,39.199"/>
		<g opacity="0.38">
			<g>
				<defs>
					<rect id="SVGID_23_" x="299.488" y="39.695" width="7.457" height="13.938"/>
				</defs>
				<clipPath id="SVGID_24_">
					<use xlink:href="#SVGID_23_"  overflow="visible"/>
				</clipPath>
				<path clip-path="url(#SVGID_24_)" fill="#FFFFFF" d="M300.132,39.86l6.813,13.733c-0.277,0.138-0.671-0.092-0.881-0.516
					l-6.541-13.185C299.312,39.468,300.132,39.86,300.132,39.86"/>
			</g>
		</g>
		<path fill="#FB5C0F" d="M322.99,33.457l0.07,0.301c-0.268,0.144-0.48,0.369-0.619,0.641l0.493,2.136l0.995,4.309
			c0,0,1.26,0.541,2.242,0.625l-1.248-5.142l-0.603-2.612c-0.247-0.11-0.519-0.152-0.793-0.112l-0.059-0.256
			c-0.037-0.155-0.172-0.256-0.304-0.226C323.032,33.151,322.954,33.302,322.99,33.457"/>
		<path fill="#882D00" d="M320.588,26.463l1.853,7.935c0.139-0.272,0.351-0.497,0.619-0.641l-0.07-0.301
			c-0.036-0.155,0.041-0.305,0.174-0.336c0.132-0.03,0.267,0.072,0.303,0.226l0.059,0.257c0.275-0.04,0.547,0.002,0.793,0.111
			l-1.797-7.697c-0.109-0.472-0.56-0.534-1.094-0.411C320.894,25.73,320.48,25.991,320.588,26.463"/>
		<g opacity="0.38">
			<g>
				<defs>
					<rect id="SVGID_25_" x="320.763" y="25.9" width="3.876" height="15.113"/>
				</defs>
				<clipPath id="SVGID_26_">
					<use xlink:href="#SVGID_25_"  overflow="visible"/>
				</clipPath>
				<path clip-path="url(#SVGID_26_)" fill="#FFFFFF" d="M321.149,25.9l3.49,15.113l-0.634-0.26l-3.209-13.894
					C320.689,26.397,320.849,25.97,321.149,25.9"/>
			</g>
		</g>
		<path fill="#FB5C0F" d="M328.906,32.401l0.02,0.308c-0.288,0.098-0.535,0.285-0.716,0.531l0.136,2.188l0.346,5.769
			c0.03,0.484,0.47,0.421,1.017,0.388c0.547-0.035,0.975-0.361,0.945-0.844l-0.312-5.192l-0.166-2.675
			c-0.225-0.149-0.487-0.235-0.764-0.241l-0.016-0.262c-0.011-0.159-0.128-0.281-0.263-0.273
			C328.998,32.107,328.896,32.242,328.906,32.401"/>
		<path fill="#882D00" d="M327.693,24.744l0.517,8.496c0.181-0.246,0.428-0.433,0.715-0.531l-0.019-0.308
			c-0.01-0.158,0.092-0.294,0.226-0.303c0.136-0.008,0.253,0.114,0.264,0.273l0.016,0.263c0.277,0.005,0.539,0.091,0.763,0.24
			l-0.473-7.695C329.13,24.968,328.221,24.79,327.693,24.744"/>
		<g opacity="0.38">
			<g>
				<defs>
					<rect id="SVGID_27_" x="327.812" y="24.899" width="1.566" height="16.531"/>
				</defs>
				<clipPath id="SVGID_28_">
					<use xlink:href="#SVGID_27_"  overflow="visible"/>
				</clipPath>
				<path clip-path="url(#SVGID_28_)" fill="#FFFFFF" d="M328.374,25.121l1.004,16.307c-0.308,0.018-0.6-0.022-0.654-1.634
					l-0.912-14.689C327.782,24.632,328.374,25.121,328.374,25.121"/>
			</g>
		</g>
		<path fill="#FB5C0F" d="M210.071,67.068l-0.04-0.223c-0.298-0.007-0.574-0.086-0.797-0.22l-0.284-1.587l-0.736-4.174
			c-0.062-0.351,0.293-0.822,0.832-0.919c0.539-0.096,1.018,0.043,1.081,0.393l0.745,4.174l0.346,1.941
			c-0.19,0.155-0.429,0.274-0.698,0.339l0.034,0.19c0.02,0.115-0.07,0.228-0.204,0.252
			C210.217,67.257,210.092,67.183,210.071,67.068"/>
		<path fill="#882D00" d="M209.79,69.789l-0.556-3.164c0.223,0.135,0.499,0.213,0.798,0.221l0.039,0.222
			c0.021,0.116,0.146,0.19,0.279,0.166c0.134-0.024,0.225-0.137,0.204-0.252l-0.034-0.19c0.269-0.065,0.508-0.184,0.699-0.339
			l0.811,4.489C211.602,70.782,209.949,70.093,209.79,69.789"/>
		<g opacity="0.38">
			<g>
				<defs>
					<rect id="SVGID_29_" x="208.411" y="60.824" width="2.124" height="9.37"/>
				</defs>
				<clipPath id="SVGID_30_">
					<use xlink:href="#SVGID_29_"  overflow="visible"/>
				</clipPath>
				<path clip-path="url(#SVGID_30_)" fill="#FFFFFF" d="M210.536,70.194l-1.672-9.37c-0.304,0.055-0.502,0.374-0.441,0.717
					l1.467,8.224L210.536,70.194z"/>
			</g>
		</g>
		<path fill="#FB5C0F" d="M200.097,63.815l0.092-0.131c-0.214-0.203-0.373-0.425-0.464-0.638l0.659-0.931l2.147-3.029
			c0.237,0.521,0.354,2.842,0.354,2.842l-0.807,1.229l-0.806,1.139c-0.224-0.056-0.464-0.16-0.696-0.31l-0.079,0.113
			c-0.047,0.067-0.176,0.058-0.286-0.02C200.099,64.001,200.049,63.882,200.097,63.815"/>
		<path fill="#882D00" d="M196.26,67.913c0.107-0.153,3.465-4.866,3.465-4.866c0.091,0.213,0.25,0.434,0.464,0.638l-0.092,0.131
			c-0.048,0.067,0.002,0.186,0.114,0.264c0.11,0.078,0.238,0.086,0.286,0.02l0.079-0.113c0.232,0.15,0.472,0.254,0.696,0.31
			l-3.019,4.211c-0.145,0.206-0.722,0.386-1.279,0.226C196.447,68.582,196.153,68.067,196.26,67.913"/>
		<g opacity="0.38">
			<g>
				<defs>
					<rect id="SVGID_31_" x="196.44" y="59.965" width="6.18" height="8.447"/>
				</defs>
				<clipPath id="SVGID_32_">
					<use xlink:href="#SVGID_31_"  overflow="visible"/>
				</clipPath>
				<path clip-path="url(#SVGID_32_)" fill="#FFFFFF" d="M196.761,68.412l5.859-8.323c-0.252-0.178-0.572-0.162-0.714,0.039
					l-5.437,7.707C196.327,68.036,196.761,68.412,196.761,68.412"/>
			</g>
		</g>
		<path fill="#FB5C0F" d="M191.024,55.45l0.114-0.161c-0.209-0.212-0.356-0.45-0.43-0.686l0.811-1.146l1.291-1.825
			c0,0,1.969-0.587,2.866-0.609l-2.446,3.451l-0.992,1.403c-0.236-0.04-0.482-0.134-0.716-0.281l-0.098,0.138
			c-0.058,0.082-0.195,0.087-0.306,0.008C191.006,55.664,190.965,55.533,191.024,55.45"/>
		<path fill="#882D00" d="M187.779,58.746l2.93-4.143c0.073,0.236,0.221,0.475,0.43,0.686l-0.114,0.161
			c-0.059,0.083-0.018,0.214,0.093,0.292c0.111,0.079,0.248,0.074,0.307-0.008l0.097-0.138c0.235,0.148,0.481,0.241,0.716,0.281
			l-3.366,4.619c-0.179,0.253-0.587-0.326-0.789-0.661C187.8,59.366,187.599,58.999,187.779,58.746"/>
		<g opacity="0.38">
			<g>
				<defs>
					<rect id="SVGID_33_" x="187.831" y="51.599" width="5.743" height="7.866"/>
				</defs>
				<clipPath id="SVGID_34_">
					<use xlink:href="#SVGID_33_"  overflow="visible"/>
				</clipPath>
				<path clip-path="url(#SVGID_34_)" fill="#FFFFFF" d="M188.071,59.465l5.503-7.834c0,0-0.598-0.124-0.774,0.123l-4.87,6.941
					C187.755,58.942,187.819,59.287,188.071,59.465"/>
			</g>
		</g>
		<path fill="#FD9D6F" d="M197.561,62.385l0.374-0.473c-0.239-0.063-0.466-0.171-0.668-0.331c-0.231-0.182-0.405-0.413-0.523-0.67
			l-0.403,0.509c-0.065,0.081-0.182,0.095-0.263,0.031c-0.01-0.007-0.017-0.019-0.024-0.028l-3.812,4.801
			c-0.258,0.325-0.203,0.905,0.227,1.245c0.429,0.34,0.964,0.449,1.221,0.124l3.917-4.937c-0.005-0.003-0.011-0.004-0.017-0.008
			C197.51,62.584,197.496,62.466,197.561,62.385"/>
		<path fill="#B86966" d="M200.986,55.208l-1.958,2.455l-2.326,2.941l-0.051,0.064l-0.597,0.755c0.008,0.01,0.014,0.021,0.024,0.029
			c0.081,0.064,0.199,0.049,0.263-0.032l0.403-0.509c0.118,0.257,0.292,0.488,0.523,0.671c0.202,0.159,0.429,0.267,0.668,0.33
			l-0.374,0.473c-0.065,0.081-0.051,0.199,0.029,0.263c0.006,0.004,0.012,0.005,0.018,0.009l0.552-0.699l0.101-0.127l2.37-2.996
			l1.261-1.604C201.892,57.23,201.279,55.479,200.986,55.208"/>
		<g opacity="0.38">
			<g>
				<defs>
					<rect id="SVGID_35_" x="192.261" y="56.128" width="8.675" height="10.931"/>
				</defs>
				<clipPath id="SVGID_36_">
					<use xlink:href="#SVGID_35_"  overflow="visible"/>
				</clipPath>
				<path clip-path="url(#SVGID_36_)" fill="#FFFFFF" d="M200.937,56.31l-8.498,10.749c-0.242-0.192-0.236-0.603,0.015-0.921
					l7.816-9.88C200.521,55.939,200.937,56.31,200.937,56.31"/>
			</g>
		</g>
		<path fill="#FD9D6F" d="M194.619,59.419l0.414-0.56c-0.25-0.043-0.486-0.136-0.693-0.289c-0.237-0.175-0.412-0.409-0.527-0.677
			l-0.445,0.602c-0.071,0.096-0.195,0.124-0.278,0.063c-0.011-0.008-0.017-0.019-0.025-0.029l-3.766,5.099
			c-0.284,0.385-0.157,0.96,0.283,1.286c0.442,0.325,0.802,0.609,1.086,0.224l3.99-5.427c-0.005-0.003-0.012-0.003-0.017-0.007
			C194.558,59.643,194.549,59.516,194.619,59.419"/>
		<path fill="#B86966" d="M198.208,51.584l-1.859,2.498l-2.569,3.478l-0.056,0.076l-0.66,0.893c0.008,0.01,0.014,0.021,0.025,0.029
			c0.083,0.061,0.207,0.033,0.278-0.063l0.445-0.602c0.115,0.268,0.29,0.502,0.527,0.677c0.207,0.153,0.443,0.246,0.693,0.289
			l-0.414,0.56c-0.07,0.096-0.061,0.223,0.022,0.285c0.005,0.004,0.012,0.004,0.017,0.007l0.611-0.827l0.11-0.15l2.619-3.544
			l1.671-2.259C199.42,52.351,198.627,51.707,198.208,51.584"/>
		<g opacity="0.38">
			<g>
				<defs>
					<rect id="SVGID_37_" x="189.247" y="51.743" width="9.477" height="12.844"/>
				</defs>
				<clipPath id="SVGID_38_">
					<use xlink:href="#SVGID_37_"  overflow="visible"/>
				</clipPath>
				<path clip-path="url(#SVGID_38_)" fill="#FFFFFF" d="M198.724,51.993l-9.303,12.595c-0.249-0.184-0.228-0.636,0.05-1.012
					l8.632-11.689C198.382,51.511,198.724,51.993,198.724,51.993"/>
			</g>
		</g>
		<path fill="#FB5C0F" d="M294.184,47.414l-0.029,0.578c-0.221-0.106-0.464-0.172-0.721-0.184c-0.295-0.015-0.577,0.041-0.835,0.15
			l0.031-0.621c0.005-0.099-0.075-0.183-0.178-0.188c-0.013,0-0.024,0.003-0.037,0.005l0.278-5.679
			c0.019-0.397,0.479-0.696,1.027-0.669c0.547,0.026,0.975,0.37,0.955,0.767l-0.278,5.675c-0.007,0-0.012-0.004-0.018-0.004
			C294.274,47.239,294.188,47.315,294.184,47.414"/>
		<path fill="#882D00" d="M292.117,53.169l0.071-1.426l0.178-3.589l0.003-0.079l0.046-0.921c0.013-0.002,0.024-0.006,0.037-0.006
			c0.103,0.006,0.183,0.09,0.178,0.189l-0.032,0.621c0.259-0.109,0.541-0.165,0.836-0.151c0.257,0.013,0.499,0.079,0.721,0.185
			l0.029-0.578c0.004-0.099,0.091-0.175,0.195-0.17c0.006,0,0.011,0.004,0.018,0.004l-0.042,0.854l-0.008,0.154l-0.181,3.658
			l-0.102,2.548C294.045,54.858,292.117,53.169,292.117,53.169"/>
		<g opacity="0.38">
			<g>
				<defs>
					<rect id="SVGID_39_" x="292.23" y="41.345" width="1.14" height="12.112"/>
				</defs>
				<clipPath id="SVGID_40_">
					<use xlink:href="#SVGID_39_"  overflow="visible"/>
				</clipPath>
				<path clip-path="url(#SVGID_40_)" fill="#FFFFFF" d="M292.771,53.458l0.599-12.112c-0.309-0.015-0.575,0.284-0.594,0.673
					l-0.546,11.029L292.771,53.458z"/>
			</g>
		</g>
		<path fill="#FB5C0F" d="M318.439,34.458l0.221,0.398c-0.234,0.045-0.469,0.127-0.695,0.251c-0.257,0.143-0.475,0.328-0.649,0.534
			l-0.237-0.428c-0.037-0.068-0.141-0.083-0.231-0.033c-0.013,0.007-0.02,0.015-0.03,0.023l-2.011-3.624
			c-0.152-0.274,0.114-0.71,0.593-0.976s0.991-0.261,1.143,0.013l2.009,3.622c-0.007,0.003-0.012,0.003-0.018,0.006
			C318.443,34.294,318.401,34.391,318.439,34.458"/>
		<path fill="#882D00" d="M319.089,39.259l-0.518-0.895l-1.372-2.471l-0.029-0.055l-0.352-0.635c0.009-0.007,0.017-0.016,0.03-0.023
			c0.089-0.049,0.194-0.035,0.23,0.034l0.238,0.427c0.173-0.206,0.391-0.39,0.649-0.533c0.226-0.124,0.46-0.206,0.695-0.251
			l-0.221-0.398c-0.038-0.068,0.004-0.164,0.095-0.214c0.006-0.003,0.011-0.004,0.017-0.007l0.327,0.588l0.059,0.106l1.397,2.519
			l1.564,2.732C321.279,39.99,319.24,39.531,319.089,39.259"/>
		<g opacity="0.38">
			<g>
				<defs>
					<rect id="SVGID_41_" x="314.892" y="30.886" width="5.102" height="8.672"/>
				</defs>
				<clipPath id="SVGID_42_">
					<use xlink:href="#SVGID_41_"  overflow="visible"/>
				</clipPath>
				<path clip-path="url(#SVGID_42_)" fill="#FFFFFF" d="M319.994,39.558l-4.811-8.671c-0.271,0.15-0.37,0.486-0.222,0.754
					l4.214,7.595L319.994,39.558z"/>
			</g>
		</g>
		<path fill="#FB5C0F" d="M336.064,32.146l-0.007,0.456c-0.225-0.078-0.471-0.123-0.727-0.125c-0.295-0.004-0.576,0.049-0.829,0.142
			l0.005-0.49c0.002-0.077-0.082-0.141-0.184-0.142c-0.015,0-0.025,0.003-0.037,0.005l0.044-4.145
			c0.003-0.312,1.972,1.853,1.972,1.853l-0.032,2.31c-0.007,0-0.012-0.003-0.019-0.003
			C336.148,32.006,336.064,32.068,336.064,32.146"/>
		<path fill="#882D00" d="M334.205,38.472l0.041-2.865l0.03-2.827v-0.062l0.009-0.726c0.014-0.001,0.024-0.005,0.037-0.005
			c0.104,0.001,0.188,0.065,0.186,0.143l-0.005,0.489c0.253-0.093,0.532-0.146,0.827-0.142c0.258,0.003,0.503,0.048,0.729,0.125
			l0.005-0.456c0-0.077,0.084-0.139,0.188-0.138c0.007,0,0.012,0.002,0.018,0.002l-0.006,0.672l-0.002,0.122l-0.031,2.88
			l-0.041,2.809c-0.003,0.312-0.444,0.5-0.992,0.494S334.202,38.784,334.205,38.472"/>
		<g opacity="0.38">
			<g>
				<defs>
					<rect id="SVGID_43_" x="334.371" y="28.617" width="0.658" height="10.149"/>
				</defs>
				<clipPath id="SVGID_44_">
					<use xlink:href="#SVGID_43_"  overflow="visible"/>
				</clipPath>
				<path clip-path="url(#SVGID_44_)" fill="#FFFFFF" d="M334.474,28.709l-0.104,9.5c-0.001,0.305,0.247,0.554,0.555,0.557
					l0.105-9.807C335.03,28.959,334.477,28.403,334.474,28.709"/>
			</g>
		</g>
		<path fill="#FD9D6F" d="M220.593,60.368l0.434,0.569c-0.252,0.044-0.487,0.139-0.691,0.296c-0.235,0.178-0.405,0.417-0.514,0.69
			l-0.466-0.612c-0.075-0.097-0.201-0.126-0.283-0.063c-0.01,0.008-0.016,0.019-0.024,0.03l-4.278-5.586
			c-0.299-0.39-0.186-0.976,0.249-1.308c0.436-0.332,1.03-0.286,1.328,0.105l4.276,5.581c-0.006,0.004-0.012,0.005-0.018,0.008
			C220.525,60.141,220.518,60.27,220.593,60.368"/>
		<path fill="#B86966" d="M224.449,68.355l-1.954-2.559l-2.695-3.534l-0.059-0.078l-0.692-0.907c0.008-0.01,0.014-0.021,0.025-0.029
			c0.081-0.063,0.208-0.035,0.282,0.063l0.467,0.612c0.108-0.274,0.278-0.512,0.513-0.691c0.204-0.156,0.439-0.252,0.691-0.295
			l-0.434-0.569c-0.075-0.098-0.068-0.227,0.013-0.29c0.006-0.004,0.012-0.004,0.018-0.008l0.64,0.84l0.117,0.152l2.746,3.602
			l1.52,1.993C225.647,66.658,224.913,67.915,224.449,68.355"/>
		<g opacity="0.38">
			<g>
				<defs>
					<rect id="SVGID_45_" x="215.113" y="55.227" width="9.61" height="12.902"/>
				</defs>
				<clipPath id="SVGID_46_">
					<use xlink:href="#SVGID_45_"  overflow="visible"/>
				</clipPath>
				<path clip-path="url(#SVGID_46_)" fill="#FFFFFF" d="M224.724,67.613l-9.447-12.386c-0.246,0.188-0.211,0.647,0.081,1.03
					l9.034,11.872L224.724,67.613z"/>
			</g>
		</g>
		<path fill="#FB5C0F" d="M280.009,45.061l-0.058,0.185c-0.294-0.04-0.572-0.015-0.803,0.066l-0.411,1.313l-1.367,4.484
			c-0.09,0.29,0.274,0.6,0.798,0.764c0.522,0.165,1.006,0.119,1.096-0.171l1.321-4.338l0.502-1.604
			c-0.175-0.162-0.4-0.299-0.66-0.395l0.05-0.158c0.03-0.095-0.051-0.205-0.18-0.245C280.167,44.92,280.039,44.964,280.009,45.061"
			/>
		<path fill="#882D00" d="M280.625,40.673l-1.478,4.639c0.231-0.081,0.51-0.107,0.804-0.067l0.058-0.185
			c0.03-0.095,0.158-0.14,0.287-0.099c0.13,0.04,0.211,0.15,0.181,0.246l-0.05,0.157c0.26,0.096,0.485,0.233,0.659,0.395l0.86-2.744
			C281.947,43.015,281.588,41.714,280.625,40.673"/>
		<g opacity="0.38">
			<g>
				<defs>
					<rect id="SVGID_47_" x="277.642" y="41.626" width="3.15" height="9.313"/>
				</defs>
				<clipPath id="SVGID_48_">
					<use xlink:href="#SVGID_47_"  overflow="visible"/>
				</clipPath>
				<path clip-path="url(#SVGID_48_)" fill="#FFFFFF" d="M280.792,42.153l-2.751,8.786c-0.295-0.093-0.463-0.396-0.374-0.679
					l2.703-8.634L280.792,42.153z"/>
			</g>
		</g>
		<path fill="#FB5C0F" d="M215.594,64.562l-0.143-0.28c-0.297,0.06-0.606,0.022-0.889-0.101l-1.012-1.988l-2.303-4.519
			c-0.223-0.439,0.032-0.91,0.52-1.159c0.488-0.249,0.81-0.598,1.034-0.159l2.404,4.716l1.238,2.429
			c-0.117,0.245-0.298,0.454-0.533,0.6l0.121,0.238c0.074,0.144,0.036,0.311-0.085,0.373
			C215.825,64.773,215.668,64.707,215.594,64.562"/>
		<path fill="#882D00" d="M218.334,71.557l-3.771-7.375c0.282,0.122,0.591,0.161,0.889,0.101l0.142,0.279
			c0.074,0.144,0.231,0.212,0.352,0.15c0.121-0.062,0.159-0.228,0.086-0.372l-0.122-0.239c0.236-0.146,0.416-0.355,0.533-0.599
			l3.882,7.607C219.875,71.314,219.057,71.583,218.334,71.557"/>
		<g opacity="0.38">
			<g>
				<defs>
					<rect id="SVGID_49_" x="211.276" y="56.763" width="7.667" height="14.635"/>
				</defs>
				<clipPath id="SVGID_50_">
					<use xlink:href="#SVGID_49_"  overflow="visible"/>
				</clipPath>
				<path clip-path="url(#SVGID_50_)" fill="#FFFFFF" d="M218.943,71.34l-7.426-14.577c-0.275,0.14-0.323,0.6-0.104,1.029
					l6.797,13.342C218.428,71.563,218.943,71.34,218.943,71.34"/>
			</g>
		</g>
		<path fill="#CC3399" d="M379.097,23.281c-2.219-1.199-4.858-1.501-7.831-0.517c-6.221,2.061-8.326,8.181-6.482,13.751
			c1.845,5.571,7.189,9.224,13.409,7.164c2.495-0.826,4.661-2.301,6.133-3.927l-2.684-8.099l-5.774,1.913l-0.748-2.256l8.236-2.728
			l3.928,11.859c-2.168,2.501-5.406,4.521-8.344,5.493c-7.211,2.389-14.389-1.188-16.822-8.536
			c-2.433-7.347,1.19-14.501,8.401-16.888c3.827-1.269,6.958-1.091,9.822,0.348L379.097,23.281z"/>
		<path fill="#CC3399" d="M402.298,28.354l-0.088-0.423c-0.597-2.855-2.265-3.978-5.119-3.382c-1.939,0.404-3.49,1.428-4.636,2.99
			l-1.756-1.362c1.192-1.867,3.377-3.206,6.479-3.853c3.243-0.676,6.409,0.575,7.248,4.592l1.537,7.366
			c0.264,1.269,0.729,2.79,1.055,3.642l-2.256,0.471c-0.311-0.781-0.587-1.753-0.771-2.634l-0.069,0.015
			c-0.884,2.463-2.525,3.763-5.168,4.314c-2.926,0.61-6.014-0.437-6.683-3.644c-1.118-5.357,5.117-7.026,9.065-7.849L402.298,28.354
			z M401.496,30.507c-2.36,0.492-7.646,1.779-6.954,5.093c0.456,2.184,2.642,2.611,4.51,2.221c3.382-0.706,4.505-3.441,3.893-6.366
			l-0.25-1.198L401.496,30.507z"/>
		<path fill="#CC3399" d="M411.664,9.821l2.376-0.023l0.127,13.176l0.071-0.001c1.526-2.284,4.289-3.283,6.521-3.303
			c5.255-0.051,9,3.692,9.048,8.768c0.05,5.076-3.621,8.891-8.878,8.942c-2.23,0.022-5.012-0.923-6.582-3.176h-0.072l0.027,2.809
			l-2.376,0.022L411.664,9.821z M420.781,21.829c-3.89,0.037-6.704,2.981-6.668,6.761c0.036,3.779,2.908,6.668,6.797,6.63
			c3.924-0.037,6.344-2.977,6.307-6.757C427.18,24.683,424.704,21.791,420.781,21.829"/>
		<path fill="#CC3399" d="M436.164,26.637c0.323-1.477,0.531-2.758,0.988-5.164l2.285,0.503l-0.673,3.058l0.07,0.016
			c1.055-1.61,3.155-2.955,6.039-2.32c0.668,0.147,1.215,0.342,1.677,0.591l-0.961,2.184c-0.258-0.168-0.664-0.331-1.297-0.47
			c-3.517-0.774-5.771,1.937-6.259,4.152l-2.043,9.281l-2.319-0.511L436.164,26.637z"/>
		<path fill="#CC3399" d="M448.25,41.74l-2.276-0.681l4.821-16.146l2.275,0.68L448.25,41.74z M453.293,20.698
			c-0.828-0.247-1.45-1.184-1.161-2.15c0.288-0.966,1.32-1.409,2.149-1.162c0.827,0.249,1.449,1.185,1.161,2.151
			C455.154,20.503,454.12,20.946,453.293,20.698"/>
		<path fill="#CC3399" d="M458.419,36.897c-0.861,3.284,0.655,6.649,3.808,7.772c2.374,0.843,4.676,0.172,6.064-0.939l1.222,2.039
			c-2.709,1.711-5.397,1.862-8.01,0.934c-4.713-1.677-6.94-6.479-5.24-11.26c1.7-4.782,6.459-7.102,10.971-5.497
			c4.804,1.746,6.316,6.296,4.773,10.637l-0.362,1.017L458.419,36.897z M469.855,38.9c1.072-3.018-0.124-5.773-3.347-6.919
			c-2.916-1.037-6.44,0.497-7.37,3.108L469.855,38.9z"/>
		
			<rect x="479.178" y="24.435" transform="matrix(0.9672 0.2541 -0.2541 0.9672 25.4363 -120.8214)" fill="#CC3399" width="2.377" height="27.215"/>
		
			<rect x="488.635" y="26.503" transform="matrix(0.9842 0.177 -0.177 0.9842 14.839 -86.0855)" fill="#CC3399" width="2.377" height="27.218"/>
		<path fill="#CC3399" d="M508.237,45.525l0.032-0.43c0.21-2.907-1.085-4.446-3.993-4.657c-1.974-0.143-3.747,0.413-5.276,1.601
			l-1.313-1.792c1.659-1.468,4.127-2.154,7.286-1.924c3.302,0.24,6.003,2.313,5.705,6.406l-0.546,7.502
			c-0.095,1.293-0.065,2.883,0.014,3.79l-2.298-0.167c-0.084-0.835-0.083-1.846-0.018-2.744l-0.071-0.005
			c-1.527,2.127-3.461,2.924-6.154,2.729c-2.979-0.217-5.66-2.072-5.421-5.339c0.396-5.457,6.848-5.348,10.869-5.056L508.237,45.525
			z M506.876,47.375c-2.405-0.175-7.84-0.39-8.085,2.985c-0.161,2.226,1.821,3.236,3.725,3.374c3.446,0.251,5.275-2.069,5.492-5.049
			l0.089-1.22L506.876,47.375z"/>
		<polygon fill="#CC3399" points="542.296,50.655 549.652,29.449 553.606,29.214 555.116,54.654 552.529,54.807 551.225,32.817 
			551.152,32.821 543.26,55.358 541.896,55.439 531.39,33.996 531.316,34 532.623,55.99 530.036,56.144 528.524,30.704 
			532.479,30.469 		"/>
		<path fill="#CC3399" d="M562.188,32.105c-0.859,0.091-1.795-0.535-1.901-1.537c-0.105-1.003,0.678-1.809,1.537-1.901
			c0.859-0.09,1.795,0.535,1.9,1.538C563.83,31.208,563.046,32.016,562.188,32.105 M565.642,53.461l-2.363,0.25l-1.772-16.756
			l2.363-0.249L565.642,53.461z"/>
		
			<rect x="571.335" y="25.348" transform="matrix(0.9921 -0.1253 0.1253 0.9921 -0.3672 72.0729)" fill="#CC3399" width="2.376" height="27.213"/>
		
			<rect x="580.815" y="24.039" transform="matrix(0.9888 -0.149 0.149 0.9888 0.8868 87.129)" fill="#CC3399" width="2.376" height="27.212"/>
		<path fill="#CC3399" d="M592.463,41.752c0.821,3.295,3.767,5.519,7.074,4.988c2.486-0.4,4.184-2.095,4.866-3.737l2.054,1.201
			c-1.556,2.803-3.842,4.228-6.577,4.668c-4.941,0.794-9.201-2.349-10.009-7.36c-0.806-5.011,2.257-9.332,6.981-10.092
			c5.053-0.776,8.569,2.488,9.3,7.037l0.171,1.066L592.463,41.752z M603.457,38.015c-0.51-3.163-2.885-5.005-6.262-4.463
			c-3.055,0.492-5.411,3.532-4.97,6.27L603.457,38.015z"/>
		<path fill="#CC3399" d="M611.634,35.285c-0.118-1.507-0.29-2.794-0.553-5.228l2.333-0.182l0.242,3.123l0.074-0.006
			c0.541-1.848,2.163-3.742,5.105-3.972c0.681-0.052,1.262-0.025,1.775,0.079l-0.286,2.369c-0.296-0.085-0.73-0.123-1.378-0.074
			c-3.587,0.28-4.96,3.528-4.784,5.788l0.737,9.474l-2.369,0.185L611.634,35.285z"/>
		<path fill="#DFDFDF" d="M179.799,155.524c13.645-24.45,10.424-53.072-1.187-79.321c20.263,15.025,26.283,60.759,17.336,86.772
			C187.954,186.213,165.378,181.362,179.799,155.524"/>
		<path fill="#DFDFDF" d="M38.6,196.463c-17.223-11.421-29.361-28.806-35.221-48.557C31.328,152.056,42.625,169.803,38.6,196.463"/>
		<path fill="#DFDFDF" d="M57.868,48.685c-21.498,8.788-34.004,30.194-38.167,52.673c-3.522,19.03-15.648,14.961-19.701,17.3
			C3.275,91.771,24.465,51.284,57.868,48.685"/>
		<path fill-rule="evenodd" clip-rule="evenodd" fill="#0D99B7" d="M124.505,195.185c-0.105,13.085-7.641,30.325,0.625,37.204
			c6.361,5.296,12.704-9.54,19.029-20.423c7.232-12.437,10.933-9.787,26.054-11.169c35.106-3.21,27.902-12.648,10.356-15.585
			c-6.547-1.095-16.114-2.521-20.536-12.137c-4.197-9.127,0.278-17.751,7.284-27.685c9.492-13.457,12.205-21.182-8.568-9.37
			c-21.393,12.162-22.547,15.285-44.999,3.518c-30.149-15.802-20.981,0.268-7.231,13.782
			C117.472,164.087,124.631,179.545,124.505,195.185"/>
		<path fill-rule="evenodd" clip-rule="evenodd" fill="#CC3399" d="M39.843,89.347c9.917-4.343,25.472-2.322,27.752-14.901
			c8.636,6.248,4.169,27.155-15.259,36.444C36.816,118.312,24.65,96,39.843,89.347"/>
		<path fill-rule="evenodd" clip-rule="evenodd" fill="#CC3399" d="M96.78,184.909c-13.369-29.234-19.17-49.428-6.031-80.257
			c15.742-36.941,6.475-31.134-11.737-7.525c-16.108,20.881-36.051,22.572-66.044,29.091c-17.962,3.904-17.771,11.211,6.555,12.238
			c27.813,1.174,33.391,20.237,32.582,44.179c-0.272,8.067-1.528,16.194-4.181,23.545c-8.982,24.881,2.217,22.712,11.184,10.139
			c4.464-6.26,8.449-13.31,10.445-21.399c4.06-16.445,8.549-12.143,15.795-1.212C110.401,231.501,106.502,206.171,96.78,184.909"/>
		<path fill-rule="evenodd" clip-rule="evenodd" fill="#0D99B7" d="M125.282,137.296c-5.231-5.749-4.296-18.204,1.554-23.527
			c7.455-6.784,14.048-6.021,18.134-1.923C159.179,126.101,136.731,149.878,125.282,137.296"/>
		<path fill="#CC3399" d="M645.751,186.854c0,8.36-7.488,15.201-16.641,15.201h-401.74c-9.152,0-16.64-6.841-16.64-15.201
			c0-8.361,7.488-15.202,16.64-15.202h401.74C638.263,171.652,645.751,178.493,645.751,186.854"/>
		<path fill="#FFFFFF" d="M225.513,180.055h5.237c3.014,0,5.743,0.949,5.743,4.06c0,3.526-2.927,4.16-6.227,4.16h-1.98v5.802h-2.773
			V180.055z M229.958,186.135c1.584,0,3.63-0.079,3.63-1.98c0-1.723-1.826-1.961-3.322-1.961h-1.98v3.941H229.958z"/>
		<polygon fill="#FFFFFF" points="241.155,180.055 251.474,180.055 251.474,182.312 243.927,182.312 243.927,185.758 
			251.078,185.758 251.078,188.017 243.927,188.017 243.927,191.819 251.87,191.819 251.87,194.076 241.155,194.076 		"/>
		<path fill="#FFFFFF" d="M256.796,180.054h6.139c4.093,0,7.921,2.258,7.921,7.011c0,4.793-4.511,7.013-8.251,7.013h-5.809V180.054z
			 M261.637,191.819c3.477,0,6.315-1.348,6.315-4.755c0-3.405-2.464-4.753-5.853-4.753h-2.53v9.508H261.637z"/>
		<rect x="275.628" y="180.054" fill="#FFFFFF" width="2.772" height="14.022"/>
		<path fill="#FFFFFF" d="M289.048,180.054h2.399l6.711,14.023h-3.169l-1.452-3.209h-6.755l-1.408,3.209h-3.102L289.048,180.054z
			 M292.569,188.729l-2.398-5.704l-2.443,5.704H292.569z"/>
		<polygon fill="#FFFFFF" points="303.261,182.312 298.486,182.312 298.486,180.054 310.808,180.054 310.808,182.312 
			306.033,182.312 306.033,194.077 303.261,194.077 		"/>
		<path fill="#FFFFFF" d="M314.898,180.055h5.413c2.993,0,5.809,0.871,5.809,4.02c0,2.021-1.298,3.507-3.608,3.804l4.136,6.199
			h-3.344l-3.609-5.941h-2.024v5.941h-2.773V180.055z M319.827,185.996c1.562,0,3.389-0.118,3.389-1.94
			c0-1.664-1.717-1.863-3.147-1.863h-2.398v3.804H319.827z"/>
		<rect x="330.892" y="180.054" fill="#FFFFFF" width="2.772" height="14.022"/>
		<path fill="#FFFFFF" d="M349.968,183.343c-1.145-1.091-2.2-1.388-3.278-1.388c-3.213,0-5.347,2.219-5.347,5.012
			c0,2.99,2.134,5.209,5.347,5.209c1.254,0,2.465-0.516,3.498-1.703l2.289,1.466c-1.408,1.742-3.521,2.495-5.811,2.495
			c-4.796,0-8.228-2.933-8.228-7.31c0-4.496,3.432-7.427,8.228-7.427c2.113,0,3.917,0.615,5.457,2.218L349.968,183.343z"/>
		<path fill="#FFFFFF" d="M365.256,180.055h5.413c2.993,0,5.81,0.871,5.81,4.02c0,2.021-1.299,3.507-3.608,3.804l4.136,6.199h-3.344
			l-3.609-5.941h-2.023v5.941h-2.773V180.055z M370.186,185.996c1.562,0,3.389-0.118,3.389-1.94c0-1.664-1.717-1.863-3.147-1.863
			h-2.397v3.804H370.186z"/>
		<polygon fill="#FFFFFF" points="381.316,180.055 391.635,180.055 391.635,182.312 384.088,182.312 384.088,185.758 
			391.24,185.758 391.24,188.017 384.088,188.017 384.088,191.819 392.032,191.819 392.032,194.076 381.316,194.076 		"/>
		<path fill="#FFFFFF" d="M404.593,183.065c-0.595-0.754-1.65-1.109-2.729-1.109c-1.275,0-2.551,0.514-2.551,1.801
			c0,2.813,7.392,1.209,7.392,6.201c0,3.009-2.639,4.475-5.698,4.475c-1.936,0-3.828-0.535-5.104-1.9l2.09-1.822
			c0.683,0.93,1.85,1.465,3.08,1.465c1.277,0,2.729-0.633,2.729-1.921c0-3.07-7.394-1.307-7.394-6.318
			c0-2.892,2.861-4.237,5.743-4.237c1.629,0,3.256,0.416,4.466,1.444L404.593,183.065z"/>
		<polygon fill="#FFFFFF" points="411.785,180.055 422.104,180.055 422.104,182.312 414.557,182.312 414.557,185.758 
			421.709,185.758 421.709,188.017 414.557,188.017 414.557,191.819 422.501,191.819 422.501,194.076 411.785,194.076 		"/>
		<path fill="#FFFFFF" d="M432.465,180.054h2.399l6.711,14.023h-3.169l-1.452-3.209h-6.755l-1.408,3.209h-3.104L432.465,180.054z
			 M435.986,188.729l-2.398-5.704l-2.443,5.704H435.986z"/>
		<path fill="#FFFFFF" d="M445.51,180.055h5.413c2.993,0,5.81,0.871,5.81,4.02c0,2.021-1.299,3.507-3.608,3.804l4.136,6.199h-3.344
			l-3.609-5.941h-2.023v5.941h-2.773V180.055z M450.439,185.996c1.562,0,3.389-0.118,3.389-1.94c0-1.664-1.717-1.863-3.147-1.863
			h-2.397v3.804H450.439z"/>
		<path fill="#FFFFFF" d="M472.264,183.343c-1.145-1.091-2.2-1.388-3.278-1.388c-3.213,0-5.347,2.219-5.347,5.012
			c0,2.99,2.134,5.209,5.347,5.209c1.254,0,2.464-0.516,3.498-1.703l2.289,1.466c-1.408,1.742-3.521,2.495-5.811,2.495
			c-4.796,0-8.228-2.933-8.228-7.31c0-4.496,3.432-7.427,8.228-7.427c2.113,0,3.917,0.615,5.457,2.218L472.264,183.343z"/>
		<polygon fill="#FFFFFF" points="478.841,180.055 481.612,180.055 481.612,185.64 488.896,185.64 488.896,180.055 491.668,180.055 
			491.668,194.076 488.896,194.076 488.896,187.897 481.612,187.897 481.612,194.076 478.841,194.076 		"/>
		<path fill="#FFFFFF" d="M506.054,180.055h5.236c3.015,0,5.742,0.949,5.742,4.06c0,3.526-2.927,4.16-6.226,4.16h-1.981v5.802
			h-2.771V180.055z M510.498,186.135c1.585,0,3.631-0.079,3.631-1.98c0-1.723-1.826-1.961-3.322-1.961h-1.981v3.941H510.498z"/>
		<path fill="#FFFFFF" d="M521.694,180.055h5.413c2.993,0,5.809,0.871,5.809,4.02c0,2.021-1.298,3.507-3.607,3.804l4.136,6.199
			h-3.344l-3.609-5.941h-2.023v5.941h-2.773V180.055z M526.623,185.996c1.562,0,3.39-0.118,3.39-1.94
			c0-1.664-1.717-1.863-3.147-1.863h-2.397v3.804H526.623z"/>
		<path fill="#FFFFFF" d="M545.147,179.697c4.863-0.079,8.295,2.853,8.295,7.348c0,4.378-3.432,7.31-8.295,7.389
			c-4.796,0-8.229-2.933-8.229-7.31C536.918,182.628,540.352,179.697,545.147,179.697 M545.17,192.176
			c3.233,0,5.368-2.219,5.368-5.209c0-2.793-2.135-5.012-5.368-5.012c-3.214,0-5.348,2.219-5.348,5.012
			C539.822,189.957,541.956,192.176,545.17,192.176"/>
		<path fill="#FFFFFF" d="M572.121,193.047c-1.894,0.91-4.05,1.387-6.447,1.387c-4.796,0-8.229-2.933-8.229-7.31
			c0-4.495,3.434-7.427,8.229-7.427c2.377,0,4.51,0.455,6.139,1.763l-2.046,1.861c-0.991-0.871-2.508-1.366-4.071-1.366
			c-3.213,0-5.346,2.219-5.346,5.012c0,2.99,2.133,5.209,5.346,5.209c1.408,0,2.686-0.237,3.653-0.733v-3.307h-3.191v-2.258h5.964
			V193.047z"/>
		<path fill="#FFFFFF" d="M577.596,180.055h5.413c2.993,0,5.81,0.871,5.81,4.02c0,2.021-1.299,3.507-3.608,3.804l4.136,6.199h-3.344
			l-3.609-5.941h-2.023v5.941h-2.773V180.055z M582.525,185.996c1.562,0,3.389-0.118,3.389-1.94c0-1.664-1.717-1.863-3.147-1.863
			h-2.397v3.804H582.525z"/>
		<path fill="#FFFFFF" d="M598.694,180.054h2.399l6.711,14.023h-3.169l-1.452-3.209h-6.755l-1.408,3.209h-3.104L598.694,180.054z
			 M602.216,188.729l-2.398-5.704l-2.443,5.704H602.216z"/>
		<polygon fill="#FFFFFF" points="611.807,180.055 616.031,180.055 620.189,189.877 624.391,180.055 628.572,180.055 
			628.572,194.076 625.932,194.076 625.932,182.432 625.888,182.432 621.157,194.076 619.221,194.076 614.49,182.432 
			614.446,182.432 614.446,194.076 611.807,194.076 		"/>
		<path fill="#2B388F" d="M234.465,86.582c0.233,3.435,0.369,7.025,0.409,10.771c0.039,3.746,0.019,8.137-0.058,13.171
			c-0.079,5.034-0.118,8.604-0.118,10.713c0,2.03,0.039,4.897,0.118,8.604c0.077,3.708,0.117,6.305,0.117,7.786
			c0.077,6.557-0.117,12.138-0.586,16.742c-0.078,0.779-0.449,1.443-1.112,1.99c-0.664,0.545-1.405,0.778-2.224,0.703
			c-0.82-0.079-1.504-0.45-2.049-1.112c-0.547-0.664-0.781-1.424-0.702-2.284c0.468-4.292,0.662-9.638,0.585-16.039
			c0-1.405-0.04-3.98-0.117-7.727c-0.079-3.746-0.117-6.633-0.117-8.663c0-2.186,0.038-5.738,0.117-10.655
			c0.077-4.917,0.097-9.208,0.058-12.878c-0.04-3.668-0.175-7.218-0.409-10.653c-0.079-0.858,0.155-1.599,0.702-2.225
			c0.545-0.623,1.248-0.975,2.107-1.054c0.858-0.076,1.599,0.158,2.225,0.703C234.035,85.022,234.386,85.724,234.465,86.582
			 M276.26,82.953c-3.044,3.512-5.66,6.128-7.844,7.844c-0.86,0.781-2.85,2.148-5.97,4.097l-8.196,5.503
			c-3.122,2.107-5.523,3.922-7.2,5.444c-1.679,1.522-2.557,2.517-2.634,2.986c0,0.233,0.194,0.584,0.585,1.053
			c0.545,0.781,1.482,1.639,2.81,2.575c0.779,0.626,2.067,1.523,3.864,2.694l3.395,2.458c3.512,3.123,8.506,8.119,14.985,14.985
			c6.165,6.557,11.043,11.397,14.635,14.518c0.623,0.547,0.974,1.25,1.053,2.106c0.077,0.861-0.157,1.602-0.702,2.226
			c-0.547,0.626-1.25,0.976-2.108,1.053c-0.86,0.08-1.6-0.155-2.224-0.702c-3.67-3.199-8.663-8.194-14.986-14.985
			c-6.4-6.79-11.279-11.63-14.634-14.518c-0.391-0.389-1.328-1.053-2.809-1.99l-4.215-2.927c-1.718-1.326-3.006-2.576-3.864-3.747
			c-1.483-1.794-2.107-3.629-1.873-5.502c0.234-1.95,1.756-4.215,4.566-6.791c1.873-1.715,4.526-3.706,7.961-5.97l8.312-5.503
			c3.199-2.107,5.034-3.355,5.503-3.746c1.873-1.56,4.174-3.94,6.907-7.141c0.545-0.624,1.248-0.976,2.107-1.054
			c0.858-0.077,1.599,0.157,2.225,0.702c0.623,0.547,0.975,1.249,1.054,2.107C277.039,81.588,276.805,82.329,276.26,82.953"/>
		<path fill="none" stroke="#2E3191" stroke-width="0.809" d="M234.465,86.582c0.233,3.435,0.369,7.025,0.409,10.771
			c0.039,3.746,0.019,8.137-0.058,13.171c-0.079,5.034-0.118,8.604-0.118,10.713c0,2.03,0.039,4.897,0.118,8.604
			c0.077,3.708,0.117,6.305,0.117,7.786c0.077,6.557-0.117,12.138-0.586,16.742c-0.078,0.779-0.449,1.443-1.112,1.99
			c-0.664,0.545-1.405,0.778-2.224,0.703c-0.82-0.079-1.504-0.45-2.049-1.112c-0.547-0.664-0.781-1.424-0.702-2.284
			c0.468-4.292,0.662-9.638,0.585-16.039c0-1.405-0.04-3.98-0.117-7.727c-0.079-3.746-0.117-6.633-0.117-8.663
			c0-2.186,0.038-5.738,0.117-10.655c0.077-4.917,0.097-9.208,0.058-12.878c-0.04-3.668-0.175-7.218-0.409-10.653
			c-0.079-0.858,0.155-1.599,0.702-2.225c0.545-0.623,1.248-0.975,2.107-1.054c0.858-0.076,1.599,0.158,2.225,0.703
			C234.035,85.022,234.386,85.724,234.465,86.582z M276.26,82.953c-3.044,3.512-5.66,6.128-7.844,7.844
			c-0.86,0.781-2.85,2.148-5.97,4.097l-8.196,5.503c-3.122,2.107-5.523,3.922-7.2,5.444c-1.679,1.522-2.557,2.517-2.634,2.986
			c0,0.233,0.194,0.584,0.585,1.053c0.545,0.781,1.482,1.639,2.81,2.575c0.779,0.626,2.067,1.523,3.864,2.694l3.395,2.458
			c3.512,3.123,8.506,8.119,14.985,14.985c6.165,6.557,11.043,11.397,14.635,14.518c0.623,0.547,0.974,1.25,1.053,2.106
			c0.077,0.861-0.157,1.602-0.702,2.226c-0.547,0.626-1.25,0.976-2.108,1.053c-0.86,0.08-1.6-0.155-2.224-0.702
			c-3.67-3.199-8.663-8.194-14.986-14.985c-6.4-6.79-11.279-11.63-14.634-14.518c-0.391-0.389-1.328-1.053-2.809-1.99l-4.215-2.927
			c-1.718-1.326-3.006-2.576-3.864-3.747c-1.483-1.794-2.107-3.629-1.873-5.502c0.234-1.95,1.756-4.215,4.566-6.791
			c1.873-1.715,4.526-3.706,7.961-5.97l8.312-5.503c3.199-2.107,5.034-3.355,5.503-3.746c1.873-1.56,4.174-3.94,6.907-7.141
			c0.545-0.624,1.248-0.976,2.107-1.054c0.858-0.077,1.599,0.157,2.225,0.702c0.623,0.547,0.975,1.249,1.054,2.107
			C277.039,81.588,276.805,82.329,276.26,82.953z"/>
		<path fill="#2B388F" d="M300.845,107.421c-0.079,1.095-0.547,7.163-1.405,18.206c-0.86,11.045-1.287,19.455-1.287,25.23
			c0,0.858-0.293,1.579-0.878,2.166c-0.586,0.585-1.309,0.878-2.166,0.878c-0.86,0-1.581-0.293-2.166-0.878
			c-0.586-0.587-0.878-1.308-0.878-2.166c0-4.292,0.155-8.898,0.468-13.815c0.311-4.917,0.721-10.321,1.229-16.215
			c0.507-5.893,0.838-10.517,0.995-13.874c0.077-0.779,0.428-1.463,1.054-2.049c0.624-0.585,1.346-0.837,2.166-0.76
			c0.82,0.078,1.522,0.429,2.107,1.053C300.67,105.823,300.922,106.564,300.845,107.421 M298.445,86.524
			c0.585,0.585,0.878,1.308,0.878,2.166c0,0.859-0.293,1.58-0.878,2.166c-0.585,0.585-1.308,0.877-2.166,0.877
			c-0.859,0-1.58-0.292-2.166-0.877c-0.585-0.586-0.877-1.307-0.877-2.166c0-0.858,0.292-1.581,0.877-2.166
			c0.586-0.585,1.307-0.878,2.166-0.878C297.137,85.646,297.86,85.939,298.445,86.524"/>
		<path fill="none" stroke="#2E3191" stroke-width="0.809" d="M300.845,107.421c-0.079,1.095-0.547,7.163-1.405,18.206
			c-0.86,11.045-1.287,19.455-1.287,25.23c0,0.858-0.293,1.579-0.878,2.166c-0.586,0.585-1.309,0.878-2.166,0.878
			c-0.86,0-1.581-0.293-2.166-0.878c-0.586-0.587-0.878-1.308-0.878-2.166c0-4.292,0.155-8.898,0.468-13.815
			c0.311-4.917,0.721-10.321,1.229-16.215c0.507-5.893,0.838-10.517,0.995-13.874c0.077-0.779,0.428-1.463,1.054-2.049
			c0.624-0.585,1.346-0.837,2.166-0.76c0.82,0.078,1.522,0.429,2.107,1.053C300.67,105.823,300.922,106.564,300.845,107.421z
			 M298.445,86.524c0.585,0.585,0.878,1.308,0.878,2.166c0,0.859-0.293,1.58-0.878,2.166c-0.585,0.585-1.308,0.877-2.166,0.877
			c-0.859,0-1.58-0.292-2.166-0.877c-0.585-0.586-0.877-1.307-0.877-2.166c0-0.858,0.292-1.581,0.877-2.166
			c0.586-0.585,1.307-0.878,2.166-0.878C297.137,85.646,297.86,85.939,298.445,86.524z"/>
		<path fill="#2B388F" d="M358.21,81.08c0.235,3.044,0.429,7.767,0.586,14.166c0.155,7.493,0.273,12.099,0.352,13.815
			c0.389,8.039,0.507,15.494,0.351,22.362c-0.079,5.542-0.391,9.913-0.936,13.112c-0.235,2.029-0.586,3.745-1.055,5.15
			c-0.626,1.873-1.444,3.202-2.459,3.981c-1.95,1.48-4.917,2.027-8.896,1.638c-3.044-0.312-6.48-1.091-10.302-2.34
			c-3.592-1.171-6.948-2.536-10.068-4.098c-3.124-1.562-5.348-3.046-6.674-4.449c-2.499-2.653-4.156-5.814-4.975-9.484
			c-0.82-3.668-0.937-7.217-0.352-10.653c0.585-3.434,1.658-6.633,3.22-9.601c0.779-1.48,1.443-2.652,1.99-3.512
			c0.545-0.858,1.306-1.931,2.283-3.219c0.975-1.288,2.107-2.36,3.395-3.22c1.288-0.858,2.711-1.521,4.273-1.99
			c4.449-1.326,11.94-1.639,22.478-0.936c0.545,0.078,1.015,0.233,1.405,0.468v-3.512v-3.396c-0.158-5.62-0.391-10.145-0.703-13.58
			c-0.078-0.858,0.156-1.619,0.703-2.283c0.545-0.663,1.229-1.034,2.048-1.112c0.821-0.077,1.562,0.157,2.226,0.702
			C357.76,79.637,358.132,80.301,358.21,81.08 M351.304,148.867c0.154-0.312,0.311-0.703,0.469-1.172
			c0.31-0.936,0.585-2.264,0.818-3.979c0.469-2.966,0.74-7.102,0.819-12.411c0.156-6.867,0.039-14.205-0.351-22.01
			c0-0.624-0.04-1.288-0.117-1.99c-0.547,0.468-1.211,0.664-1.991,0.585c-9.756-0.624-16.546-0.39-20.37,0.703
			c-1.639,0.468-3.064,1.425-4.273,2.868c-1.211,1.444-2.517,3.454-3.922,6.029c-2.03,3.513-2.985,7.492-2.868,11.941
			c0.117,4.449,1.463,8.039,4.039,10.771c0.779,0.858,2.517,1.972,5.21,3.337c2.692,1.365,5.678,2.557,8.956,3.569
			c3.434,1.171,6.438,1.874,9.016,2.108C349,149.452,350.522,149.335,351.304,148.867"/>
		<path fill="none" stroke="#2E3191" stroke-width="0.809" d="M358.21,81.08c0.235,3.044,0.429,7.767,0.586,14.166
			c0.155,7.493,0.273,12.099,0.352,13.815c0.389,8.039,0.507,15.494,0.351,22.362c-0.079,5.542-0.391,9.913-0.936,13.112
			c-0.235,2.029-0.586,3.745-1.055,5.15c-0.626,1.873-1.444,3.202-2.459,3.981c-1.95,1.48-4.917,2.027-8.896,1.638
			c-3.044-0.312-6.48-1.091-10.302-2.34c-3.592-1.171-6.948-2.536-10.068-4.098c-3.124-1.562-5.348-3.046-6.674-4.449
			c-2.499-2.653-4.156-5.814-4.975-9.484c-0.82-3.668-0.937-7.217-0.352-10.653c0.585-3.434,1.658-6.633,3.22-9.601
			c0.779-1.48,1.443-2.652,1.99-3.512c0.545-0.858,1.306-1.931,2.283-3.219c0.975-1.288,2.107-2.36,3.395-3.22
			c1.288-0.858,2.711-1.521,4.273-1.99c4.449-1.326,11.94-1.639,22.478-0.936c0.545,0.078,1.015,0.233,1.405,0.468v-3.512v-3.396
			c-0.158-5.62-0.391-10.145-0.703-13.58c-0.078-0.858,0.156-1.619,0.703-2.283c0.545-0.663,1.229-1.034,2.048-1.112
			c0.821-0.077,1.562,0.157,2.226,0.702C357.76,79.637,358.132,80.301,358.21,81.08z M351.304,148.867
			c0.154-0.312,0.311-0.703,0.469-1.172c0.31-0.936,0.585-2.264,0.818-3.979c0.469-2.966,0.74-7.102,0.819-12.411
			c0.156-6.867,0.039-14.205-0.351-22.01c0-0.624-0.04-1.288-0.117-1.99c-0.547,0.468-1.211,0.664-1.991,0.585
			c-9.756-0.624-16.546-0.39-20.37,0.703c-1.639,0.468-3.064,1.425-4.273,2.868c-1.211,1.444-2.517,3.454-3.922,6.029
			c-2.03,3.513-2.985,7.492-2.868,11.941c0.117,4.449,1.463,8.039,4.039,10.771c0.779,0.858,2.517,1.972,5.21,3.337
			c2.692,1.365,5.678,2.557,8.956,3.569c3.434,1.171,6.438,1.874,9.016,2.108C349,149.452,350.522,149.335,351.304,148.867z"/>
		<path fill="#2B388F" d="M400.824,113.626c-4.763-2.184-8.663-3.512-11.707-3.979c-4.216-0.545-7.184,0.429-8.898,2.926
			c-0.468,0.626-0.703,1.113-0.703,1.464c0,0.353,0.156,0.878,0.469,1.58c0.391,0.703,0.858,1.406,1.404,2.108
			c0.545,0.703,1.035,1.288,1.464,1.756s1.151,1.053,2.166,1.756l1.991,1.522l2.575,1.639c1.326,0.937,2.184,1.522,2.576,1.756
			c2.106,1.406,3.843,2.693,5.209,3.864c1.364,1.171,2.752,2.83,4.155,4.975c1.405,2.148,2.303,4.47,2.694,6.966
			c0.389,2.811-0.861,5.192-3.748,7.143c-1.873,1.25-4.41,2.264-7.609,3.044c-2.653,0.703-5.404,1.17-8.254,1.405
			c-2.849,0.233-5.015,0.233-6.497,0c-1.25-0.312-3.513-1.171-6.791-2.575c-0.78-0.391-1.327-0.977-1.639-1.757
			c-0.312-0.779-0.293-1.54,0.06-2.282c0.351-0.742,0.915-1.27,1.696-1.581c0.78-0.312,1.523-0.312,2.226,0
			c2.887,1.25,4.76,1.952,5.618,2.107c1.015,0.233,2.712,0.254,5.094,0.059c2.38-0.195,4.701-0.604,6.966-1.23
			c2.497-0.624,4.409-1.363,5.737-2.225c0.778-0.544,1.13-0.936,1.054-1.17c-0.392-2.418-1.329-4.507-2.812-6.263
			c-1.482-1.758-3.669-3.571-6.556-5.444c-0.312-0.235-1.093-0.761-2.341-1.582c-1.249-0.819-2.166-1.404-2.751-1.755
			c-0.585-0.352-1.425-0.955-2.517-1.815c-1.096-0.857-1.952-1.619-2.576-2.282c-0.626-0.662-1.328-1.481-2.108-2.458
			c-0.781-0.977-1.404-1.933-1.873-2.868c-0.858-1.716-1.249-3.318-1.171-4.802c0.156-1.48,0.78-3.002,1.874-4.565
			c3.121-4.525,8-6.322,14.634-5.385c3.668,0.468,8.156,1.913,13.464,4.331c0.778,0.392,1.307,0.977,1.58,1.757
			c0.273,0.78,0.235,1.562-0.117,2.341c-0.351,0.781-0.918,1.308-1.696,1.581C402.385,113.959,401.603,113.939,400.824,113.626"/>
		<path fill="none" stroke="#2E3191" stroke-width="0.809" d="M400.824,113.626c-4.763-2.184-8.663-3.512-11.707-3.979
			c-4.216-0.545-7.184,0.429-8.898,2.926c-0.468,0.626-0.703,1.113-0.703,1.464c0,0.353,0.156,0.878,0.469,1.58
			c0.391,0.703,0.858,1.406,1.404,2.108c0.545,0.703,1.035,1.288,1.464,1.756s1.151,1.053,2.166,1.756l1.991,1.522l2.575,1.639
			c1.326,0.937,2.184,1.522,2.576,1.756c2.106,1.406,3.843,2.693,5.209,3.864c1.364,1.171,2.752,2.83,4.155,4.975
			c1.405,2.148,2.303,4.47,2.694,6.966c0.389,2.811-0.861,5.192-3.748,7.143c-1.873,1.25-4.41,2.264-7.609,3.044
			c-2.653,0.703-5.404,1.17-8.254,1.405c-2.849,0.233-5.015,0.233-6.497,0c-1.25-0.312-3.513-1.171-6.791-2.575
			c-0.78-0.391-1.327-0.977-1.639-1.757c-0.312-0.779-0.293-1.54,0.06-2.282c0.351-0.742,0.915-1.27,1.696-1.581
			c0.78-0.312,1.523-0.312,2.226,0c2.887,1.25,4.76,1.952,5.618,2.107c1.015,0.233,2.712,0.254,5.094,0.059
			c2.38-0.195,4.701-0.604,6.966-1.23c2.497-0.624,4.409-1.363,5.737-2.225c0.778-0.544,1.13-0.936,1.054-1.17
			c-0.392-2.418-1.329-4.507-2.812-6.263c-1.482-1.758-3.669-3.571-6.556-5.444c-0.312-0.235-1.093-0.761-2.341-1.582
			c-1.249-0.819-2.166-1.404-2.751-1.755c-0.585-0.352-1.425-0.955-2.517-1.815c-1.096-0.857-1.952-1.619-2.576-2.282
			c-0.626-0.662-1.328-1.481-2.108-2.458c-0.781-0.977-1.404-1.933-1.873-2.868c-0.858-1.716-1.249-3.318-1.171-4.802
			c0.156-1.48,0.78-3.002,1.874-4.565c3.121-4.525,8-6.322,14.634-5.385c3.668,0.468,8.156,1.913,13.464,4.331
			c0.778,0.392,1.307,0.977,1.58,1.757c0.273,0.78,0.235,1.562-0.117,2.341c-0.351,0.781-0.918,1.308-1.696,1.581
			C402.385,113.959,401.603,113.939,400.824,113.626z"/>
		<path fill="#2B388F" d="M446.832,74.641c2.496-0.077,6.789-0.038,12.878,0.117c5.307,0.157,9.482,0.117,12.526-0.117
			c0.858-0.077,1.6,0.157,2.226,0.703c0.623,0.547,0.975,1.249,1.054,2.107c0.076,0.86-0.159,1.601-0.704,2.224
			c-0.546,0.626-1.249,0.977-2.107,1.054c-3.355,0.234-7.767,0.274-13.229,0.117c-5.932-0.155-10.069-0.194-12.41-0.117h-0.703
			v0.117c0,4.84-0.35,11.122-1.053,18.849l-0.585,5.854c2.73,1.171,5.248,2.127,7.551,2.868c2.301,0.743,4.76,1.347,7.375,1.815
			c2.615,0.468,5.152,0.605,7.611,0.409c2.458-0.193,4.779-0.72,6.966-1.58c0.779-0.311,1.56-0.311,2.34,0
			c0.78,0.313,1.328,0.86,1.64,1.639c0.312,0.781,0.312,1.562,0,2.341c-0.312,0.781-0.859,1.329-1.64,1.64
			c-8.586,3.435-19.356,2.537-32.312-2.693c-0.234,2.108-0.392,4.138-0.469,6.087c-0.156,3.437-0.078,7.924,0.234,13.465
			c0.468,6.867,0.703,11.552,0.703,14.049c0,0.859-0.293,1.58-0.878,2.166c-0.586,0.585-1.309,0.878-2.166,0.878
			c-0.86,0-1.58-0.293-2.166-0.878c-0.585-0.586-0.878-1.307-0.878-2.166c0-2.342-0.235-6.867-0.702-13.581
			c-0.314-5.931-0.392-10.654-0.235-14.166c0.155-2.811,0.662-9.054,1.522-18.732c0.703-7.883,1.053-13.97,1.053-18.264
			c0-0.858,0.293-1.58,0.879-2.166c0.585-0.585,1.307-0.878,2.165-0.878h0.586c0-0.858,0.273-1.599,0.82-2.224
			C445.27,74.954,445.973,74.641,446.832,74.641"/>
		<path fill="none" stroke="#2E3191" stroke-width="0.809" d="M446.832,74.641c2.496-0.077,6.789-0.038,12.878,0.117
			c5.307,0.157,9.482,0.117,12.526-0.117c0.858-0.077,1.6,0.157,2.226,0.703c0.623,0.547,0.975,1.249,1.054,2.107
			c0.076,0.86-0.159,1.601-0.704,2.224c-0.546,0.626-1.249,0.977-2.107,1.054c-3.355,0.234-7.767,0.274-13.229,0.117
			c-5.932-0.155-10.069-0.194-12.41-0.117h-0.703v0.117c0,4.84-0.35,11.122-1.053,18.849l-0.585,5.854
			c2.73,1.171,5.248,2.127,7.551,2.868c2.301,0.743,4.76,1.347,7.375,1.815c2.615,0.468,5.152,0.605,7.611,0.409
			c2.458-0.193,4.779-0.72,6.966-1.58c0.779-0.311,1.56-0.311,2.34,0c0.78,0.313,1.328,0.86,1.64,1.639
			c0.312,0.781,0.312,1.562,0,2.341c-0.312,0.781-0.859,1.329-1.64,1.64c-8.586,3.435-19.356,2.537-32.312-2.693
			c-0.234,2.108-0.392,4.138-0.469,6.087c-0.156,3.437-0.078,7.924,0.234,13.465c0.468,6.867,0.703,11.552,0.703,14.049
			c0,0.859-0.293,1.58-0.878,2.166c-0.586,0.585-1.309,0.878-2.166,0.878c-0.86,0-1.58-0.293-2.166-0.878
			c-0.585-0.586-0.878-1.307-0.878-2.166c0-2.342-0.235-6.867-0.702-13.581c-0.314-5.931-0.392-10.654-0.235-14.166
			c0.155-2.811,0.662-9.054,1.522-18.732c0.703-7.883,1.053-13.97,1.053-18.264c0-0.858,0.293-1.58,0.879-2.166
			c0.585-0.585,1.307-0.878,2.165-0.878h0.586c0-0.858,0.273-1.599,0.82-2.224C445.27,74.954,445.973,74.641,446.832,74.641z"/>
		<path fill="#2B388F" d="M493.542,107.421c-0.079,1.095-0.546,7.163-1.405,18.206c-0.858,11.045-1.287,19.455-1.287,25.23
			c0,0.858-0.293,1.579-0.879,2.166c-0.585,0.585-1.308,0.878-2.166,0.878s-1.58-0.293-2.164-0.878
			c-0.587-0.587-0.88-1.308-0.88-2.166c0-4.292,0.156-8.898,0.47-13.815c0.31-4.917,0.721-10.321,1.229-16.215
			c0.507-5.893,0.838-10.517,0.995-13.874c0.077-0.779,0.428-1.463,1.054-2.049c0.623-0.585,1.347-0.837,2.166-0.76
			c0.82,0.078,1.522,0.429,2.107,1.053C493.367,105.823,493.619,106.564,493.542,107.421 M491.143,86.524
			c0.586,0.585,0.878,1.308,0.878,2.166c0,0.859-0.292,1.58-0.878,2.166c-0.586,0.585-1.309,0.877-2.166,0.877
			c-0.859,0-1.58-0.292-2.166-0.877c-0.586-0.586-0.879-1.307-0.879-2.166c0-0.858,0.293-1.581,0.879-2.166s1.307-0.878,2.166-0.878
			C489.834,85.646,490.557,85.939,491.143,86.524"/>
		<path fill="none" stroke="#2E3191" stroke-width="0.809" d="M493.542,107.421c-0.079,1.095-0.546,7.163-1.405,18.206
			c-0.858,11.045-1.287,19.455-1.287,25.23c0,0.858-0.293,1.579-0.879,2.166c-0.585,0.585-1.308,0.878-2.166,0.878
			s-1.58-0.293-2.164-0.878c-0.587-0.587-0.88-1.308-0.88-2.166c0-4.292,0.156-8.898,0.47-13.815
			c0.31-4.917,0.721-10.321,1.229-16.215c0.507-5.893,0.838-10.517,0.995-13.874c0.077-0.779,0.428-1.463,1.054-2.049
			c0.623-0.585,1.347-0.837,2.166-0.76c0.82,0.078,1.522,0.429,2.107,1.053C493.367,105.823,493.619,106.564,493.542,107.421z
			 M491.143,86.524c0.586,0.585,0.878,1.308,0.878,2.166c0,0.859-0.292,1.58-0.878,2.166c-0.586,0.585-1.309,0.877-2.166,0.877
			c-0.859,0-1.58-0.292-2.166-0.877c-0.586-0.586-0.879-1.307-0.879-2.166c0-0.858,0.293-1.581,0.879-2.166s1.307-0.878,2.166-0.878
			C489.834,85.646,490.557,85.939,491.143,86.524z"/>
		<path fill="#2B388F" d="M515.669,117.022c2.965-6.322,6.673-10.028,11.122-11.124c4.683-1.17,9.601,0.703,14.751,5.62
			c0.624,0.626,0.938,1.347,0.938,2.166c0,0.819-0.293,1.543-0.879,2.166c-0.585,0.627-1.287,0.938-2.108,0.938
			c-0.818,0-1.542-0.273-2.165-0.82c-3.591-3.433-6.635-4.839-9.132-4.215c-2.499,0.626-4.8,3.241-6.908,7.844
			c-0.39,0.781-0.976,1.31-1.756,1.581c-0.78,0.275-1.561,0.254-2.341-0.058c-0.937-0.469-1.521-1.209-1.756-2.225
			c-0.468,14.984,0.703,29.465,3.512,43.435c0.235,0.779,0.118,1.521-0.351,2.224c-0.468,0.702-1.113,1.151-1.932,1.348
			c-0.819,0.192-1.58,0.059-2.283-0.41c-0.702-0.468-1.133-1.132-1.287-1.99c-3.825-18.419-4.762-37.854-2.812-58.304
			c0.077-0.779,0.449-1.443,1.113-1.99c0.662-0.545,1.405-0.779,2.224-0.703c0.82,0.079,1.502,0.451,2.05,1.113
			c0.545,0.664,0.778,1.425,0.701,2.282c-0.391,4.607-0.663,8.471-0.818,11.591C515.629,117.334,515.669,117.179,515.669,117.022"/>
		<path fill="none" stroke="#2E3191" stroke-width="0.809" d="M515.669,117.022c2.965-6.322,6.673-10.028,11.122-11.124
			c4.683-1.17,9.601,0.703,14.751,5.62c0.624,0.626,0.938,1.347,0.938,2.166c0,0.819-0.293,1.543-0.879,2.166
			c-0.585,0.627-1.287,0.938-2.108,0.938c-0.818,0-1.542-0.273-2.165-0.82c-3.591-3.433-6.635-4.839-9.132-4.215
			c-2.499,0.626-4.8,3.241-6.908,7.844c-0.39,0.781-0.976,1.31-1.756,1.581c-0.78,0.275-1.561,0.254-2.341-0.058
			c-0.937-0.469-1.521-1.209-1.756-2.225c-0.468,14.984,0.703,29.465,3.512,43.435c0.235,0.779,0.118,1.521-0.351,2.224
			c-0.468,0.702-1.113,1.151-1.932,1.348c-0.819,0.192-1.58,0.059-2.283-0.41c-0.702-0.468-1.133-1.132-1.287-1.99
			c-3.825-18.419-4.762-37.854-2.812-58.304c0.077-0.779,0.449-1.443,1.113-1.99c0.662-0.545,1.405-0.779,2.224-0.703
			c0.82,0.079,1.502,0.451,2.05,1.113c0.545,0.664,0.778,1.425,0.701,2.282c-0.391,4.607-0.663,8.471-0.818,11.591
			C515.629,117.334,515.669,117.179,515.669,117.022z"/>
		<path fill="#2B388F" d="M576.781,113.626c-4.763-2.184-8.663-3.512-11.707-3.979c-4.216-0.545-7.184,0.429-8.898,2.926
			c-0.468,0.626-0.703,1.113-0.703,1.464c0,0.353,0.156,0.878,0.469,1.58c0.391,0.703,0.858,1.406,1.404,2.108
			c0.545,0.703,1.035,1.288,1.464,1.756s1.151,1.053,2.166,1.756l1.991,1.522l2.575,1.639c1.326,0.937,2.184,1.522,2.576,1.756
			c2.106,1.406,3.843,2.693,5.209,3.864c1.364,1.171,2.752,2.83,4.155,4.975c1.405,2.148,2.303,4.47,2.694,6.966
			c0.389,2.811-0.861,5.192-3.748,7.143c-1.873,1.25-4.41,2.264-7.608,3.044c-2.654,0.703-5.405,1.17-8.255,1.405
			c-2.849,0.233-5.015,0.233-6.497,0c-1.25-0.312-3.513-1.171-6.791-2.575c-0.78-0.391-1.327-0.977-1.639-1.757
			c-0.312-0.779-0.293-1.54,0.06-2.282c0.351-0.742,0.916-1.27,1.696-1.581c0.78-0.312,1.523-0.312,2.226,0
			c2.887,1.25,4.76,1.952,5.619,2.107c1.014,0.233,2.711,0.254,5.093,0.059c2.38-0.195,4.701-0.604,6.966-1.23
			c2.497-0.624,4.409-1.363,5.737-2.225c0.778-0.544,1.13-0.936,1.054-1.17c-0.392-2.418-1.329-4.507-2.812-6.263
			c-1.482-1.758-3.669-3.571-6.556-5.444c-0.312-0.235-1.093-0.761-2.341-1.582c-1.249-0.819-2.166-1.404-2.751-1.755
			c-0.585-0.352-1.425-0.955-2.517-1.815c-1.096-0.857-1.952-1.619-2.576-2.282c-0.626-0.662-1.328-1.481-2.108-2.458
			c-0.781-0.977-1.404-1.933-1.873-2.868c-0.858-1.716-1.249-3.318-1.171-4.802c0.156-1.48,0.78-3.002,1.874-4.565
			c3.121-4.525,8-6.322,14.634-5.385c3.668,0.468,8.156,1.913,13.464,4.331c0.778,0.392,1.307,0.977,1.58,1.757
			c0.273,0.78,0.235,1.562-0.116,2.341c-0.352,0.781-0.918,1.308-1.697,1.581C578.342,113.959,577.56,113.939,576.781,113.626"/>
		<path fill="none" stroke="#2E3191" stroke-width="0.809" d="M576.781,113.626c-4.763-2.184-8.663-3.512-11.707-3.979
			c-4.216-0.545-7.184,0.429-8.898,2.926c-0.468,0.626-0.703,1.113-0.703,1.464c0,0.353,0.156,0.878,0.469,1.58
			c0.391,0.703,0.858,1.406,1.404,2.108c0.545,0.703,1.035,1.288,1.464,1.756s1.151,1.053,2.166,1.756l1.991,1.522l2.575,1.639
			c1.326,0.937,2.184,1.522,2.576,1.756c2.106,1.406,3.843,2.693,5.209,3.864c1.364,1.171,2.752,2.83,4.155,4.975
			c1.405,2.148,2.303,4.47,2.694,6.966c0.389,2.811-0.861,5.192-3.748,7.143c-1.873,1.25-4.41,2.264-7.608,3.044
			c-2.654,0.703-5.405,1.17-8.255,1.405c-2.849,0.233-5.015,0.233-6.497,0c-1.25-0.312-3.513-1.171-6.791-2.575
			c-0.78-0.391-1.327-0.977-1.639-1.757c-0.312-0.779-0.293-1.54,0.06-2.282c0.351-0.742,0.916-1.27,1.696-1.581
			c0.78-0.312,1.523-0.312,2.226,0c2.887,1.25,4.76,1.952,5.619,2.107c1.014,0.233,2.711,0.254,5.093,0.059
			c2.38-0.195,4.701-0.604,6.966-1.23c2.497-0.624,4.409-1.363,5.737-2.225c0.778-0.544,1.13-0.936,1.054-1.17
			c-0.392-2.418-1.329-4.507-2.812-6.263c-1.482-1.758-3.669-3.571-6.556-5.444c-0.312-0.235-1.093-0.761-2.341-1.582
			c-1.249-0.819-2.166-1.404-2.751-1.755c-0.585-0.352-1.425-0.955-2.517-1.815c-1.096-0.857-1.952-1.619-2.576-2.282
			c-0.626-0.662-1.328-1.481-2.108-2.458c-0.781-0.977-1.404-1.933-1.873-2.868c-0.858-1.716-1.249-3.318-1.171-4.802
			c0.156-1.48,0.78-3.002,1.874-4.565c3.121-4.525,8-6.322,14.634-5.385c3.668,0.468,8.156,1.913,13.464,4.331
			c0.778,0.392,1.307,0.977,1.58,1.757c0.273,0.78,0.235,1.562-0.116,2.341c-0.352,0.781-0.918,1.308-1.697,1.581
			C578.342,113.959,577.56,113.939,576.781,113.626z"/>
		<path fill="#2B388F" d="M601.014,111.285c-1.016,0-1.873-0.039-2.575-0.117c-1.25,0-2.266-0.117-3.044-0.351
			c-0.547-0.077-1.017-0.235-1.405-0.469c-0.938-0.468-1.562-1.13-1.873-1.99c-0.468-1.482-0.158-2.731,0.936-3.746
			c0.391-0.469,0.938-0.838,1.641-1.113c0.702-0.272,1.092-0.409,1.17-0.409c3.668-2.731,6.75-4.488,9.249-5.269
			c0.779-0.234,1.54-0.155,2.283,0.235c0.74,0.391,1.247,0.976,1.521,1.755c0.274,0.782,0.215,1.543-0.174,2.284
			c-0.392,0.742-0.978,1.269-1.757,1.58c-1.17,0.392-2.303,0.86-3.396,1.405h2.108l7.726-0.586c2.966-0.233,4.605-0.351,4.917-0.351
			c0.859,0,1.6,0.275,2.226,0.82c0.624,0.547,0.936,1.249,0.936,2.107c0,0.86-0.273,1.601-0.818,2.225
			c-0.548,0.625-1.25,0.936-2.107,0.936c-0.392,0-1.932,0.117-4.625,0.351c-2.693,0.235-4.976,0.392-6.849,0.469
			c-0.625,10.85-0.469,19.592,0.469,26.225c0.779,5.464,1.99,8.976,3.629,10.537c0.468,0.468,1.053,0.664,1.755,0.585
			c1.248-0.155,2.771-1.015,4.567-2.576c0.624-0.545,1.363-0.78,2.224-0.703c0.858,0.08,1.562,0.43,2.108,1.054
			c0.545,0.626,0.778,1.367,0.702,2.226c-0.079,0.859-0.431,1.562-1.055,2.106c-2.732,2.342-5.308,3.67-7.726,3.981
			c-2.655,0.311-4.958-0.468-6.908-2.342c-2.576-2.496-4.332-7.181-5.268-14.05C600.583,130.993,600.389,122.057,601.014,111.285"/>
		<path fill="none" stroke="#2E3191" stroke-width="0.809" d="M601.014,111.285c-1.016,0-1.873-0.039-2.575-0.117
			c-1.25,0-2.266-0.117-3.044-0.351c-0.547-0.077-1.017-0.235-1.405-0.469c-0.938-0.468-1.562-1.13-1.873-1.99
			c-0.468-1.482-0.158-2.731,0.936-3.746c0.391-0.469,0.938-0.838,1.641-1.113c0.702-0.272,1.092-0.409,1.17-0.409
			c3.668-2.731,6.75-4.488,9.249-5.269c0.779-0.234,1.54-0.155,2.283,0.235c0.74,0.391,1.247,0.976,1.521,1.755
			c0.274,0.782,0.215,1.543-0.174,2.284c-0.392,0.742-0.978,1.269-1.757,1.58c-1.17,0.392-2.303,0.86-3.396,1.405h2.108l7.726-0.586
			c2.966-0.233,4.605-0.351,4.917-0.351c0.859,0,1.6,0.275,2.226,0.82c0.624,0.547,0.936,1.249,0.936,2.107
			c0,0.86-0.273,1.601-0.818,2.225c-0.548,0.625-1.25,0.936-2.107,0.936c-0.392,0-1.932,0.117-4.625,0.351
			c-2.693,0.235-4.976,0.392-6.849,0.469c-0.625,10.85-0.469,19.592,0.469,26.225c0.779,5.464,1.99,8.976,3.629,10.537
			c0.468,0.468,1.053,0.664,1.755,0.585c1.248-0.155,2.771-1.015,4.567-2.576c0.624-0.545,1.363-0.78,2.224-0.703
			c0.858,0.08,1.562,0.43,2.108,1.054c0.545,0.626,0.778,1.367,0.702,2.226c-0.079,0.859-0.431,1.562-1.055,2.106
			c-2.732,2.342-5.308,3.67-7.726,3.981c-2.655,0.311-4.958-0.468-6.908-2.342c-2.576-2.496-4.332-7.181-5.268-14.05
			C600.583,130.993,600.389,122.057,601.014,111.285z"/>
		<path fill-rule="evenodd" clip-rule="evenodd" fill="#90278E" d="M163.427,64.82c-24.739,14.201-62.097,7.911-83.351-9.395
			c-10.195-8.301-8.292-8.508,2.629-11.221c9.43-2.344,14.997-4.166,26.096,4.206c6.596,4.975,13.325,8.64,19.503,10.149
			c14.694,3.587,25.787,3.281,35.884-0.43C183.531,51.016,184.106,52.95,163.427,64.82"/>
		<path fill-rule="evenodd" clip-rule="evenodd" fill="#00ADEE" d="M131.002,27.582c5.453,11.499,17.796,21.558,30.961,22.078
			c9.612,0.38,15.652-2.176,0.378,3.439c-9.084,3.339-19.208,3.578-32.775,0.267c-5.094-1.244-10.687-4.203-16.278-8.269
			c-13.539-9.839-0.938-13.286,8.855-21.471C131.529,15.778,125.947,16.918,131.002,27.582"/>
		<path fill-rule="evenodd" clip-rule="evenodd" fill="#BE1E2D" d="M86.427,2.93c10.698,4.467,19.917,6.239,30.114,6.944
			c9.481,0.655,11.356-0.379,4.042,8.482c-3.388,4.104-7.539,7.569-12.176,10.467c-11.167,6.981-21.038-7.052-26.73-19.289
			C76.299-2.027,75.754-1.526,86.427,2.93"/>
		<path fill-rule="evenodd" clip-rule="evenodd" fill="#F6921E" d="M74.471,30.266c0.724-4.34,1.279-9.182,1.455-14.154
			c0.284-7.962-0.955-8.066,3.362-1.052c2.335,3.791,5.168,7.921,7.684,11.307c4.225,5.689,7.406,9.446,0.517,11.369
			c-2.3,0.642-4.622,1.206-6.948,1.696C69.286,41.803,72.821,40.155,74.471,30.266"/>
		<path fill="#2B388F" d="M251.601,238.231c-1.493,0-2.395-1.005-2.395-2.358v-19.608c0-1.387,0.902-2.359,2.395-2.359h5.795
			c3.401,0,6.004,0.938,7.843,2.811c1.839,1.875,2.881,4.373,3.054,7.462c0.07,1.318,0.07,2.568,0,3.783
			c-0.173,3.089-1.215,5.587-3.054,7.462c-1.839,1.873-4.442,2.809-7.843,2.809H251.601z M265.447,224.282
			c-0.243-4.755-2.88-7.636-8.051-7.636h-5.344v18.845h5.344c5.136,0,7.773-2.847,8.051-7.601
			C265.517,226.606,265.517,225.427,265.447,224.282"/>
		<path fill="none" stroke="#2E3191" stroke-width="1.003" d="M251.601,238.231c-1.493,0-2.395-1.005-2.395-2.358v-19.608
			c0-1.387,0.902-2.359,2.395-2.359h5.795c3.401,0,6.004,0.938,7.843,2.811c1.839,1.875,2.881,4.373,3.054,7.462
			c0.07,1.318,0.07,2.568,0,3.783c-0.173,3.089-1.215,5.587-3.054,7.462c-1.839,1.873-4.442,2.809-7.843,2.809H251.601z
			 M265.447,224.282c-0.243-4.755-2.88-7.636-8.051-7.636h-5.344v18.845h5.344c5.136,0,7.773-2.847,8.051-7.601
			C265.517,226.606,265.517,225.427,265.447,224.282z"/>
		<path fill="#2B388F" d="M287.345,235.456c0,0.52-0.208,0.903-0.59,1.145c-0.589,0.451-1.561,0.867-2.88,1.319
			c-1.285,0.416-2.707,0.624-4.2,0.624c-4.441,0-6.939-2.325-6.939-5.898c0-3.229,2.498-5.622,6.975-5.622
			c1.422,0,3.053,0.242,4.858,0.728v-1.421c0-2.777-1.388-3.992-4.338-3.992c-1.145,0-2.533,0.312-4.13,0.903
			c-1.11,0.416-2.012-0.139-2.012-1.077c0-0.588,0.312-1.041,0.902-1.319c1.527-0.728,3.366-1.108,5.518-1.108
			c4.303,0,6.836,2.082,6.836,6.488V235.456z M284.569,234.728v-4.547c-1.979-0.52-3.609-0.764-4.824-0.764
			c-2.464,0-4.199,1.215-4.199,3.158c0,2.292,1.492,3.436,4.442,3.436C282.452,236.011,284.013,235.283,284.569,234.728"/>
		<path fill="none" stroke="#2E3191" stroke-width="1.003" d="M287.345,235.456c0,0.52-0.208,0.903-0.59,1.145
			c-0.589,0.451-1.561,0.867-2.88,1.319c-1.285,0.416-2.707,0.624-4.2,0.624c-4.441,0-6.939-2.325-6.939-5.898
			c0-3.229,2.498-5.622,6.975-5.622c1.422,0,3.053,0.242,4.858,0.728v-1.421c0-2.777-1.388-3.992-4.338-3.992
			c-1.145,0-2.533,0.312-4.13,0.903c-1.11,0.416-2.012-0.139-2.012-1.077c0-0.588,0.312-1.041,0.902-1.319
			c1.527-0.728,3.366-1.108,5.518-1.108c4.303,0,6.836,2.082,6.836,6.488V235.456z M284.569,234.728v-4.547
			c-1.979-0.52-3.609-0.764-4.824-0.764c-2.464,0-4.199,1.215-4.199,3.158c0,2.292,1.492,3.436,4.442,3.436
			C282.452,236.011,284.013,235.283,284.569,234.728z"/>
		<path fill="#2B388F" d="M298.485,238.545c-3.574,0-5.344-2.29-5.344-5.727v-15.095c0-0.799,0.59-1.424,1.388-1.424
			s1.423,0.625,1.423,1.424v2.844h5.24c0.694,0,1.319,0.59,1.319,1.286c0,0.693-0.625,1.284-1.319,1.284h-5.24v9.785
			c0,1.84,0.867,3.019,2.672,3.019c0.417,0,1.353-0.208,2.776-0.624c1.111-0.278,1.805,0.346,1.805,1.284
			c0,0.659-0.382,1.111-1.145,1.354C301.053,238.337,299.839,238.545,298.485,238.545"/>
		<path fill="none" stroke="#2E3191" stroke-width="1.003" d="M298.485,238.545c-3.574,0-5.344-2.29-5.344-5.727v-15.095
			c0-0.799,0.59-1.424,1.388-1.424s1.423,0.625,1.423,1.424v2.844h5.24c0.694,0,1.319,0.59,1.319,1.286
			c0,0.693-0.625,1.284-1.319,1.284h-5.24v9.785c0,1.84,0.867,3.019,2.672,3.019c0.417,0,1.353-0.208,2.776-0.624
			c1.111-0.278,1.805,0.346,1.805,1.284c0,0.659-0.382,1.111-1.145,1.354C301.053,238.337,299.839,238.545,298.485,238.545z"/>
		<path fill="#2B388F" d="M321.007,235.456c0,0.52-0.208,0.903-0.589,1.145c-0.591,0.451-1.562,0.867-2.881,1.319
			c-1.285,0.416-2.707,0.624-4.2,0.624c-4.441,0-6.94-2.325-6.94-5.898c0-3.229,2.499-5.622,6.976-5.622
			c1.422,0,3.053,0.242,4.858,0.728v-1.421c0-2.777-1.388-3.992-4.338-3.992c-1.145,0-2.534,0.312-4.13,0.903
			c-1.11,0.416-2.012-0.139-2.012-1.077c0-0.588,0.312-1.041,0.902-1.319c1.527-0.728,3.366-1.108,5.518-1.108
			c4.303,0,6.836,2.082,6.836,6.488V235.456z M318.231,234.728v-4.547c-1.979-0.52-3.609-0.764-4.824-0.764
			c-2.464,0-4.199,1.215-4.199,3.158c0,2.292,1.492,3.436,4.441,3.436C316.114,236.011,317.675,235.283,318.231,234.728"/>
		<path fill="none" stroke="#2E3191" stroke-width="1.003" d="M321.007,235.456c0,0.52-0.208,0.903-0.589,1.145
			c-0.591,0.451-1.562,0.867-2.881,1.319c-1.285,0.416-2.707,0.624-4.2,0.624c-4.441,0-6.94-2.325-6.94-5.898
			c0-3.229,2.499-5.622,6.976-5.622c1.422,0,3.053,0.242,4.858,0.728v-1.421c0-2.777-1.388-3.992-4.338-3.992
			c-1.145,0-2.534,0.312-4.13,0.903c-1.11,0.416-2.012-0.139-2.012-1.077c0-0.588,0.312-1.041,0.902-1.319
			c1.527-0.728,3.366-1.108,5.518-1.108c4.303,0,6.836,2.082,6.836,6.488V235.456z M318.231,234.728v-4.547
			c-1.979-0.52-3.609-0.764-4.824-0.764c-2.464,0-4.199,1.215-4.199,3.158c0,2.292,1.492,3.436,4.441,3.436
			C316.114,236.011,317.675,235.283,318.231,234.728z"/>
		<path fill="#2B388F" d="M353.317,238.371c-0.417,0-0.765-0.173-1.041-0.486l-6.525-8.052c-0.66-0.797-1.077-1.108-1.943-1.108
			h-4.198v8.188c0,0.799-0.694,1.458-1.425,1.458c-0.728,0-1.423-0.659-1.423-1.458V216.23c0-1.354,0.868-2.324,2.361-2.324h7.08
			c2.22,0,4.094,0.659,5.587,1.977c1.492,1.32,2.256,3.157,2.256,5.483c0,3.992-2.256,6.247-5.9,6.838l6.316,7.807
			c0.208,0.243,0.312,0.521,0.312,0.868C354.774,237.677,354.115,238.371,353.317,238.371 M339.609,226.018h6.245
			c3.54,0,5.311-1.562,5.311-4.651c0-2.95-1.701-4.719-5.137-4.719h-6.419V226.018z"/>
		<path fill="none" stroke="#2E3191" stroke-width="1.003" d="M353.317,238.371c-0.417,0-0.765-0.173-1.041-0.486l-6.525-8.052
			c-0.66-0.797-1.077-1.108-1.943-1.108h-4.198v8.188c0,0.799-0.694,1.458-1.425,1.458c-0.728,0-1.423-0.659-1.423-1.458V216.23
			c0-1.354,0.868-2.324,2.361-2.324h7.08c2.22,0,4.094,0.659,5.587,1.977c1.492,1.32,2.256,3.157,2.256,5.483
			c0,3.992-2.256,6.247-5.9,6.838l6.316,7.807c0.208,0.243,0.312,0.521,0.312,0.868
			C354.774,237.677,354.115,238.371,353.317,238.371z M339.609,226.018h6.245c3.54,0,5.311-1.562,5.311-4.651
			c0-2.95-1.701-4.719-5.137-4.719h-6.419V226.018z"/>
		<path fill="#2B388F" d="M374.658,228.308c0,1.353-0.693,2.012-2.047,2.012h-10.376v0.556c0,3.192,2.082,5.102,5.17,5.102
			c1.146,0,2.535-0.313,4.234-0.902c1.144-0.451,2.013,0.243,2.013,1.11c0,0.52-0.243,0.937-0.764,1.251
			c-1.11,0.658-3.47,1.109-5.518,1.109c-4.72,0-7.634-2.914-7.878-7.462c-0.104-1.631-0.068-3.019,0.035-4.163
			c0.382-4.442,3.401-7.185,7.668-7.185c2.257,0,4.062,0.694,5.415,2.118c1.354,1.387,2.047,3.192,2.047,5.413V228.308z
			 M371.467,227.96c0.276,0,0.416-0.14,0.45-0.416c0.174-3.157-1.665-5.274-4.685-5.274c-3.332,0-5.103,2.185-4.997,5.69H371.467z"
			/>
		<path fill="none" stroke="#2E3191" stroke-width="1.003" d="M374.658,228.308c0,1.353-0.693,2.012-2.047,2.012h-10.376v0.556
			c0,3.192,2.082,5.102,5.17,5.102c1.146,0,2.535-0.313,4.234-0.902c1.144-0.451,2.013,0.243,2.013,1.11
			c0,0.52-0.243,0.937-0.764,1.251c-1.11,0.658-3.47,1.109-5.518,1.109c-4.72,0-7.634-2.914-7.878-7.462
			c-0.104-1.631-0.068-3.019,0.035-4.163c0.382-4.442,3.401-7.185,7.668-7.185c2.257,0,4.062,0.694,5.415,2.118
			c1.354,1.387,2.047,3.192,2.047,5.413V228.308z M371.467,227.96c0.276,0,0.416-0.14,0.45-0.416
			c0.174-3.157-1.665-5.274-4.685-5.274c-3.332,0-5.103,2.185-4.997,5.69H371.467z"/>
		<path fill="#2B388F" d="M387.257,228.1c3.089,0.798,4.615,2.43,4.615,4.894c0,3.366-2.672,5.551-6.732,5.551
			c-2.533,0-4.614-0.659-6.177-1.942c-0.556-0.45-0.659-1.318-0.277-1.874c0.52-0.693,1.179-0.799,1.942-0.277
			c1.425,1.076,2.498,1.561,4.756,1.561c2.323,0,3.713-1.215,3.713-2.881c0-1.214-0.938-2.047-2.777-2.498
			c-1.63-0.382-2.464-0.555-2.498-0.591c-3.262-0.832-4.893-2.463-4.893-4.926c0-3.297,2.637-5.379,6.488-5.379
			c2.015,0,3.68,0.484,4.964,1.492c0.659,0.52,0.625,1.525,0.173,1.941c-0.485,0.557-1.109,0.625-1.873,0.175
			c-1.182-0.694-2.292-1.041-3.366-1.041c-2.43,0-3.646,0.901-3.646,2.706c0,1.146,0.729,1.841,2.708,2.396l1.771,0.416
			L387.257,228.1z"/>
		<path fill="none" stroke="#2E3191" stroke-width="1.003" d="M387.257,228.1c3.089,0.798,4.615,2.43,4.615,4.894
			c0,3.366-2.672,5.551-6.732,5.551c-2.533,0-4.614-0.659-6.177-1.942c-0.556-0.45-0.659-1.318-0.277-1.874
			c0.52-0.693,1.179-0.799,1.942-0.277c1.425,1.076,2.498,1.561,4.756,1.561c2.323,0,3.713-1.215,3.713-2.881
			c0-1.214-0.938-2.047-2.777-2.498c-1.63-0.382-2.464-0.555-2.498-0.591c-3.262-0.832-4.893-2.463-4.893-4.926
			c0-3.297,2.637-5.379,6.488-5.379c2.015,0,3.68,0.484,4.964,1.492c0.659,0.52,0.625,1.525,0.173,1.941
			c-0.485,0.557-1.109,0.625-1.873,0.175c-1.182-0.694-2.292-1.041-3.366-1.041c-2.43,0-3.646,0.901-3.646,2.706
			c0,1.146,0.729,1.841,2.708,2.396l1.771,0.416L387.257,228.1z"/>
		<path fill="#2B388F" d="M411.547,231.535c-0.104,2.048-0.901,3.713-2.358,5.031c-1.423,1.318-3.229,1.979-5.379,1.979
			c-2.116,0-3.921-0.66-5.38-1.979c-1.457-1.318-2.255-2.983-2.36-5.031c-0.103-1.631-0.103-3.264,0-4.929
			c0.105-2.013,0.903-3.644,2.326-4.928c1.458-1.284,3.262-1.942,5.414-1.942c2.15,0,3.956,0.624,5.379,1.907
			c1.457,1.284,2.255,2.915,2.358,4.963C411.651,228.271,411.651,229.904,411.547,231.535 M398.881,231.361
			c0.243,2.741,2.151,4.547,4.929,4.547c2.774,0,4.684-1.806,4.927-4.547c0.105-1.492,0.105-3.02,0-4.547
			c-0.172-2.638-2.047-4.441-4.927-4.441c-2.881,0-4.754,1.804-4.929,4.441C398.776,228.342,398.776,229.869,398.881,231.361"/>
		<path fill="none" stroke="#2E3191" stroke-width="1.003" d="M411.547,231.535c-0.104,2.048-0.901,3.713-2.358,5.031
			c-1.423,1.318-3.229,1.979-5.379,1.979c-2.116,0-3.921-0.66-5.38-1.979c-1.457-1.318-2.255-2.983-2.36-5.031
			c-0.103-1.631-0.103-3.264,0-4.929c0.105-2.013,0.903-3.644,2.326-4.928c1.458-1.284,3.262-1.942,5.414-1.942
			c2.15,0,3.956,0.624,5.379,1.907c1.457,1.284,2.255,2.915,2.358,4.963C411.651,228.271,411.651,229.904,411.547,231.535z
			 M398.881,231.361c0.243,2.741,2.151,4.547,4.929,4.547c2.774,0,4.684-1.806,4.927-4.547c0.105-1.492,0.105-3.02,0-4.547
			c-0.172-2.638-2.047-4.441-4.927-4.441c-2.881,0-4.754,1.804-4.929,4.441C398.776,228.342,398.776,229.869,398.881,231.361z"/>
		<path fill="#2B388F" d="M416.857,221.437c0-0.8,0.591-1.457,1.389-1.457c0.799,0,1.423,0.657,1.423,1.457V231.5
			c0,2.742,1.734,4.373,4.65,4.373c1.908,0,3.505-0.417,4.789-1.285v-13.151c0-0.8,0.59-1.457,1.388-1.457
			c0.799,0,1.423,0.657,1.423,1.457v13.882c0,0.52-0.208,0.9-0.589,1.144c-1.98,1.389-4.338,2.082-7.011,2.082
			c-4.546,0-7.462-2.602-7.462-7.079V221.437z"/>
		<path fill="none" stroke="#2E3191" stroke-width="1.003" d="M416.857,221.437c0-0.8,0.591-1.457,1.389-1.457
			c0.799,0,1.423,0.657,1.423,1.457V231.5c0,2.742,1.734,4.373,4.65,4.373c1.908,0,3.505-0.417,4.789-1.285v-13.151
			c0-0.8,0.59-1.457,1.388-1.457c0.799,0,1.423,0.657,1.423,1.457v13.882c0,0.52-0.208,0.9-0.589,1.144
			c-1.98,1.389-4.338,2.082-7.011,2.082c-4.546,0-7.462-2.602-7.462-7.079V221.437z"/>
		<path fill="#2B388F" d="M447.815,221.437c0,0.659-0.522,1.283-1.39,1.283c-0.174,0-0.59-0.035-1.179-0.138
			c-0.591-0.104-1.112-0.14-1.562-0.14c-1.875,0.035-2.811,1.075-2.811,3.124v11.382c0,0.799-0.625,1.424-1.423,1.424
			c-0.799,0-1.423-0.625-1.423-1.424v-11.695c0-3.435,2.048-5.517,5.656-5.517c1.215,0,2.222,0.138,3.02,0.381
			C447.432,220.291,447.815,220.742,447.815,221.437"/>
		<path fill="none" stroke="#2E3191" stroke-width="1.003" d="M447.815,221.437c0,0.659-0.522,1.283-1.39,1.283
			c-0.174,0-0.59-0.035-1.179-0.138c-0.591-0.104-1.112-0.14-1.562-0.14c-1.875,0.035-2.811,1.075-2.811,3.124v11.382
			c0,0.799-0.625,1.424-1.423,1.424c-0.799,0-1.423-0.625-1.423-1.424v-11.695c0-3.435,2.048-5.517,5.656-5.517
			c1.215,0,2.222,0.138,3.02,0.381C447.432,220.291,447.815,220.742,447.815,221.437z"/>
		<path fill="#2B388F" d="M462.91,232.958c0.276-0.624,0.729-0.938,1.354-0.938c0.729,0,1.319,0.589,1.319,1.422
			c0,1.041-0.659,2.153-1.979,3.332c-1.284,1.181-3.018,1.771-5.171,1.771c-2.185,0-4.024-0.659-5.448-1.979
			c-1.423-1.353-2.221-3.019-2.324-5.032c-0.104-1.631-0.104-3.298,0-4.928c0.104-2.047,0.901-3.678,2.324-4.962
			c1.458-1.285,3.264-1.909,5.448-1.909c2.153,0,3.854,0.589,5.137,1.806c1.284,1.18,1.943,2.289,1.943,3.297
			c0,0.833-0.589,1.422-1.319,1.422c-0.624,0-1.074-0.313-1.352-0.938c-0.799-1.943-2.465-2.95-4.373-2.95
			c-2.916,0-4.755,1.736-4.998,4.407c-0.104,1.32-0.104,2.847,0,4.581c0.243,2.673,2.047,4.547,4.998,4.547
			C460.377,235.907,462.11,234.901,462.91,232.958"/>
		<path fill="none" stroke="#2E3191" stroke-width="1.003" d="M462.91,232.958c0.276-0.624,0.729-0.938,1.354-0.938
			c0.729,0,1.319,0.589,1.319,1.422c0,1.041-0.659,2.153-1.979,3.332c-1.284,1.181-3.018,1.771-5.171,1.771
			c-2.185,0-4.024-0.659-5.448-1.979c-1.423-1.353-2.221-3.019-2.324-5.032c-0.104-1.631-0.104-3.298,0-4.928
			c0.104-2.047,0.901-3.678,2.324-4.962c1.458-1.285,3.264-1.909,5.448-1.909c2.153,0,3.854,0.589,5.137,1.806
			c1.284,1.18,1.943,2.289,1.943,3.297c0,0.833-0.589,1.422-1.319,1.422c-0.624,0-1.074-0.313-1.352-0.938
			c-0.799-1.943-2.465-2.95-4.373-2.95c-2.916,0-4.755,1.736-4.998,4.407c-0.104,1.32-0.104,2.847,0,4.581
			c0.243,2.673,2.047,4.547,4.998,4.547C460.377,235.907,462.11,234.901,462.91,232.958z"/>
		<path fill="#2B388F" d="M485.153,228.308c0,1.353-0.692,2.012-2.045,2.012h-10.377v0.556c0,3.192,2.082,5.102,5.17,5.102
			c1.146,0,2.534-0.313,4.234-0.902c1.145-0.451,2.013,0.243,2.013,1.11c0,0.52-0.244,0.937-0.764,1.251
			c-1.11,0.658-3.471,1.109-5.519,1.109c-4.719,0-7.634-2.914-7.877-7.462c-0.104-1.631-0.069-3.019,0.034-4.163
			c0.382-4.442,3.401-7.185,7.67-7.185c2.256,0,4.062,0.694,5.415,2.118c1.353,1.387,2.045,3.192,2.045,5.413V228.308z
			 M481.963,227.96c0.276,0,0.416-0.14,0.449-0.416c0.176-3.157-1.665-5.274-4.683-5.274c-3.333,0-5.104,2.185-4.998,5.69H481.963z"
			/>
		<path fill="none" stroke="#2E3191" stroke-width="1.003" d="M485.153,228.308c0,1.353-0.692,2.012-2.045,2.012h-10.377v0.556
			c0,3.192,2.082,5.102,5.17,5.102c1.146,0,2.534-0.313,4.234-0.902c1.145-0.451,2.013,0.243,2.013,1.11
			c0,0.52-0.244,0.937-0.764,1.251c-1.11,0.658-3.471,1.109-5.519,1.109c-4.719,0-7.634-2.914-7.877-7.462
			c-0.104-1.631-0.069-3.019,0.034-4.163c0.382-4.442,3.401-7.185,7.67-7.185c2.256,0,4.062,0.694,5.415,2.118
			c1.353,1.387,2.045,3.192,2.045,5.413V228.308z M481.963,227.96c0.276,0,0.416-0.14,0.449-0.416
			c0.176-3.157-1.665-5.274-4.683-5.274c-3.333,0-5.104,2.185-4.998,5.69H481.963z"/>
		<path fill="#2B388F" d="M515.45,231.709c0.242-0.592,0.693-0.903,1.318-0.903c0.659,0,1.354,0.625,1.354,1.353
			c0,0.176-0.035,0.384-0.104,0.626c-0.695,1.735-1.839,3.123-3.47,4.198c-1.631,1.077-3.401,1.597-5.378,1.597
			c-2.743,0-5.033-0.901-6.872-2.74c-1.84-1.84-2.847-4.165-3.021-6.942c-0.139-1.909-0.139-3.782,0-5.622
			c0.208-2.774,1.216-5.065,3.021-6.905c1.839-1.84,4.129-2.775,6.872-2.775c1.977,0,3.747,0.52,5.378,1.596
			c1.631,1.04,2.774,2.429,3.47,4.164c0.069,0.243,0.104,0.451,0.104,0.66c0,0.728-0.694,1.319-1.354,1.319
			c-0.625,0-1.076-0.312-1.318-0.903c-1.076-2.498-3.507-4.095-6.28-4.095c-1.98,0-3.576,0.659-4.861,1.978
			c-1.282,1.319-2.011,3.021-2.185,5.101c-0.105,1.771-0.105,3.574,0,5.347c0.174,2.081,0.902,3.782,2.185,5.099
			c1.285,1.32,2.881,1.98,4.861,1.98C511.943,235.839,514.374,234.206,515.45,231.709"/>
		<path fill="none" stroke="#2E3191" stroke-width="1.003" d="M515.45,231.709c0.242-0.592,0.693-0.903,1.318-0.903
			c0.659,0,1.354,0.625,1.354,1.353c0,0.176-0.035,0.384-0.104,0.626c-0.695,1.735-1.839,3.123-3.47,4.198
			c-1.631,1.077-3.401,1.597-5.378,1.597c-2.743,0-5.033-0.901-6.872-2.74c-1.84-1.84-2.847-4.165-3.021-6.942
			c-0.139-1.909-0.139-3.782,0-5.622c0.208-2.774,1.216-5.065,3.021-6.905c1.839-1.84,4.129-2.775,6.872-2.775
			c1.977,0,3.747,0.52,5.378,1.596c1.631,1.04,2.774,2.429,3.47,4.164c0.069,0.243,0.104,0.451,0.104,0.66
			c0,0.728-0.694,1.319-1.354,1.319c-0.625,0-1.076-0.312-1.318-0.903c-1.076-2.498-3.507-4.095-6.28-4.095
			c-1.98,0-3.576,0.659-4.861,1.978c-1.282,1.319-2.011,3.021-2.185,5.101c-0.105,1.771-0.105,3.574,0,5.347
			c0.174,2.081,0.902,3.782,2.185,5.099c1.285,1.32,2.881,1.98,4.861,1.98C511.943,235.839,514.374,234.206,515.45,231.709z"/>
		<path fill="#2B388F" d="M537.555,228.308c0,1.353-0.692,2.012-2.045,2.012h-10.377v0.556c0,3.192,2.082,5.102,5.17,5.102
			c1.146,0,2.534-0.313,4.234-0.902c1.145-0.451,2.013,0.243,2.013,1.11c0,0.52-0.244,0.937-0.764,1.251
			c-1.11,0.658-3.471,1.109-5.519,1.109c-4.719,0-7.634-2.914-7.877-7.462c-0.104-1.631-0.069-3.019,0.035-4.163
			c0.381-4.442,3.4-7.185,7.669-7.185c2.256,0,4.062,0.694,5.415,2.118c1.353,1.387,2.045,3.192,2.045,5.413V228.308z
			 M534.364,227.96c0.276,0,0.416-0.14,0.449-0.416c0.176-3.157-1.665-5.274-4.683-5.274c-3.332,0-5.102,2.185-4.998,5.69H534.364z"
			/>
		<path fill="none" stroke="#2E3191" stroke-width="1.003" d="M537.555,228.308c0,1.353-0.692,2.012-2.045,2.012h-10.377v0.556
			c0,3.192,2.082,5.102,5.17,5.102c1.146,0,2.534-0.313,4.234-0.902c1.145-0.451,2.013,0.243,2.013,1.11
			c0,0.52-0.244,0.937-0.764,1.251c-1.11,0.658-3.471,1.109-5.519,1.109c-4.719,0-7.634-2.914-7.877-7.462
			c-0.104-1.631-0.069-3.019,0.035-4.163c0.381-4.442,3.4-7.185,7.669-7.185c2.256,0,4.062,0.694,5.415,2.118
			c1.353,1.387,2.045,3.192,2.045,5.413V228.308z M534.364,227.96c0.276,0,0.416-0.14,0.449-0.416
			c0.176-3.157-1.665-5.274-4.683-5.274c-3.332,0-5.102,2.185-4.998,5.69H534.364z"/>
		<path fill="#2B388F" d="M557.788,236.913c0,0.834-0.556,1.459-1.389,1.459c-0.799,0-1.424-0.625-1.424-1.459v-9.958
			c0-3.021-1.977-4.548-4.65-4.548c-1.907,0-3.505,0.383-4.787,1.146v13.359c0,0.834-0.591,1.459-1.389,1.459
			c-0.799,0-1.424-0.625-1.424-1.459v-14.056c0-0.519,0.208-0.936,0.625-1.249c1.249-0.936,3.853-1.873,7.045-1.873
			c4.824,0,7.393,2.498,7.393,7.079V236.913z"/>
		<path fill="none" stroke="#2E3191" stroke-width="1.003" d="M557.788,236.913c0,0.834-0.556,1.459-1.389,1.459
			c-0.799,0-1.424-0.625-1.424-1.459v-9.958c0-3.021-1.977-4.548-4.65-4.548c-1.907,0-3.505,0.383-4.787,1.146v13.359
			c0,0.834-0.591,1.459-1.389,1.459c-0.799,0-1.424-0.625-1.424-1.459v-14.056c0-0.519,0.208-0.936,0.625-1.249
			c1.249-0.936,3.853-1.873,7.045-1.873c4.824,0,7.393,2.498,7.393,7.079V236.913z"/>
		<path fill="#2B388F" d="M569.031,238.545c-3.574,0-5.345-2.29-5.345-5.727v-15.095c0-0.799,0.591-1.424,1.39-1.424
			c0.798,0,1.422,0.625,1.422,1.424v2.844h5.241c0.692,0,1.317,0.59,1.317,1.286c0,0.693-0.625,1.284-1.317,1.284h-5.241v9.785
			c0,1.84,0.868,3.019,2.673,3.019c0.416,0,1.352-0.208,2.776-0.624c1.109-0.278,1.805,0.346,1.805,1.284
			c0,0.659-0.383,1.111-1.147,1.354C571.599,238.337,570.385,238.545,569.031,238.545"/>
		<path fill="none" stroke="#2E3191" stroke-width="1.003" d="M569.031,238.545c-3.574,0-5.345-2.29-5.345-5.727v-15.095
			c0-0.799,0.591-1.424,1.39-1.424c0.798,0,1.422,0.625,1.422,1.424v2.844h5.241c0.692,0,1.317,0.59,1.317,1.286
			c0,0.693-0.625,1.284-1.317,1.284h-5.241v9.785c0,1.84,0.868,3.019,2.673,3.019c0.416,0,1.352-0.208,2.776-0.624
			c1.109-0.278,1.805,0.346,1.805,1.284c0,0.659-0.383,1.111-1.147,1.354C571.599,238.337,570.385,238.545,569.031,238.545z"/>
		<path fill="#2B388F" d="M592.525,228.308c0,1.353-0.693,2.012-2.046,2.012h-10.377v0.556c0,3.192,2.082,5.102,5.17,5.102
			c1.146,0,2.534-0.313,4.234-0.902c1.145-0.451,2.014,0.243,2.014,1.11c0,0.52-0.245,0.937-0.765,1.251
			c-1.11,0.658-3.471,1.109-5.519,1.109c-4.718,0-7.634-2.914-7.877-7.462c-0.104-1.631-0.069-3.019,0.035-4.163
			c0.381-4.442,3.4-7.185,7.669-7.185c2.256,0,4.062,0.694,5.415,2.118c1.353,1.387,2.046,3.192,2.046,5.413V228.308z
			 M589.334,227.96c0.276,0,0.417-0.14,0.449-0.416c0.176-3.157-1.665-5.274-4.683-5.274c-3.332,0-5.103,2.185-4.998,5.69H589.334z"
			/>
		<path fill="none" stroke="#2E3191" stroke-width="1.003" d="M592.525,228.308c0,1.353-0.693,2.012-2.046,2.012h-10.377v0.556
			c0,3.192,2.082,5.102,5.17,5.102c1.146,0,2.534-0.313,4.234-0.902c1.145-0.451,2.014,0.243,2.014,1.11
			c0,0.52-0.245,0.937-0.765,1.251c-1.11,0.658-3.471,1.109-5.519,1.109c-4.718,0-7.634-2.914-7.877-7.462
			c-0.104-1.631-0.069-3.019,0.035-4.163c0.381-4.442,3.4-7.185,7.669-7.185c2.256,0,4.062,0.694,5.415,2.118
			c1.353,1.387,2.046,3.192,2.046,5.413V228.308z M589.334,227.96c0.276,0,0.417-0.14,0.449-0.416
			c0.176-3.157-1.665-5.274-4.683-5.274c-3.332,0-5.103,2.185-4.998,5.69H589.334z"/>
		<path fill="#2B388F" d="M607.275,221.437c0,0.659-0.521,1.283-1.39,1.283c-0.173,0-0.59-0.035-1.179-0.138
			c-0.591-0.104-1.112-0.14-1.562-0.14c-1.875,0.035-2.811,1.075-2.811,3.124v11.382c0,0.799-0.625,1.424-1.422,1.424
			c-0.799,0-1.424-0.625-1.424-1.424v-11.695c0-3.435,2.048-5.517,5.656-5.517c1.215,0,2.222,0.138,3.02,0.381
			C606.892,220.291,607.275,220.742,607.275,221.437"/>
		<path fill="none" stroke="#2E3191" stroke-width="1.003" d="M607.275,221.437c0,0.659-0.521,1.283-1.39,1.283
			c-0.173,0-0.59-0.035-1.179-0.138c-0.591-0.104-1.112-0.14-1.562-0.14c-1.875,0.035-2.811,1.075-2.811,3.124v11.382
			c0,0.799-0.625,1.424-1.422,1.424c-0.799,0-1.424-0.625-1.424-1.424v-11.695c0-3.435,2.048-5.517,5.656-5.517
			c1.215,0,2.222,0.138,3.02,0.381C606.892,220.291,607.275,220.742,607.275,221.437z"/>
	</g>
</g>
</svg>
