<svg version="1.1" id="kf-logo" xmlns="http://www.w3.org/2000/svg" xmlns:xlink="http://www.w3.org/1999/xlink" x="0px" y="0px"
   viewBox="0 0 288 288" style="enable-background:new 0 0 288 288;" xml:space="preserve">
<style type="text/css">
  .Arco_x0020_verde{fill:url(#SVGID_1_);stroke:#FFFFFF;stroke-width:0.25;stroke-miterlimit:1;}
  .st0{fill:#DFDFDF;}
  .st1{fill-rule:evenodd;clip-rule:evenodd;fill:#0D99B7;}
  .st2{fill-rule:evenodd;clip-rule:evenodd;fill:#CC3399;}
  .st3{fill-rule:evenodd;clip-rule:evenodd;fill:#90278E;}
  .st4{fill-rule:evenodd;clip-rule:evenodd;fill:#00ADEE;}
  .st5{fill-rule:evenodd;clip-rule:evenodd;fill:#BE1E2D;}
  .st6{fill-rule:evenodd;clip-rule:evenodd;fill:#F6921E;}
</style>
<linearGradient id="SVGID_1_" gradientUnits="userSpaceOnUse" x1="-281.1948" y1="569.1948" x2="-280.4877" y2="568.4877">
  <stop  offset="0" style="stop-color:#1EAB4B"/>
  <stop  offset="0.9831" style="stop-color:#19361A"/>
</linearGradient>
<g>
  <g>
    <path class="st0" d="M228.3,185c14.4-25.8,11-56.1-1.3-83.8c21.4,15.9,27.8,64.2,18.3,91.7C236.9,217.4,213.1,212.3,228.3,185z"/>
    <path class="st0" d="M79.1,228.2c-18.2-12.1-31-30.4-37.2-51.3C71.5,181.3,83.4,200,79.1,228.2z"/>
    <path class="st0" d="M99.5,72.1c-22.7,9.3-35.9,31.9-40.3,55.6c-3.7,20.1-16.5,15.8-20.8,18.3C41.8,117.6,64.2,74.8,99.5,72.1z"/>
    <path class="st1" d="M169.9,226.9c-0.1,13.8-8.1,32,0.7,39.3c6.7,5.6,13.4-10.1,20.1-21.6c7.6-13.1,11.5-10.3,27.5-11.8
      c37.1-3.4,29.5-13.4,10.9-16.5c-6.9-1.2-17-2.7-21.7-12.8c-4.4-9.6,0.3-18.8,7.7-29.2c10-14.2,12.9-22.4-9.1-9.9
      c-22.6,12.8-23.8,16.1-47.5,3.7c-31.8-16.7-22.2,0.3-7.6,14.6C162.5,194,170,210.3,169.9,226.9z"/>
    <path class="st2" d="M80.5,115.1c10.5-4.6,26.9-2.5,29.3-15.7c9.1,6.6,4.4,28.7-16.1,38.5C77.3,145.7,64.4,122.1,80.5,115.1z"/>
    <path class="st2" d="M140.6,216c-14.1-30.9-20.3-52.2-6.4-84.8c16.6-39,6.8-32.9-12.4-7.9c-17,22.1-38.1,23.8-69.8,30.7
      c-19,4.1-18.8,11.8,6.9,12.9c29.4,1.2,35.3,21.4,34.4,46.7c-0.3,8.5-1.6,17.1-4.4,24.9c-9.5,26.3,2.3,24,11.8,10.7
      c4.7-6.6,8.9-14.1,11-22.6c4.3-17.4,9-12.8,16.7-1.3C155,265.2,150.9,238.5,140.6,216z"/>
    <path class="st1" d="M170.7,165.7c-5.5-6.1-4.5-19.2,1.6-24.9c7.9-7.2,14.8-6.4,19.2-2C206.5,153.9,182.8,179,170.7,165.7z"/>
  </g>
  <g>
    <path class="st3" d="M211,89.1c-26.1,15-65.6,8.4-88.1-9.9c-10.8-8.8-8.8-9,2.8-11.9c10-2.5,15.8-4.4,27.6,4.4
      c7,5.3,14.1,9.1,20.6,10.7c15.5,3.8,27.2,3.5,37.9-0.5C232.3,74.6,232.9,76.6,211,89.1z"/>
    <path class="st4" d="M176.8,49.8c5.8,12.1,18.8,22.8,32.7,23.3c10.2,0.4,16.5-2.3,0.4,3.6c-9.6,3.5-20.3,3.8-34.6,0.3
      c-5.4-1.3-11.3-4.4-17.2-8.7c-14.3-10.4-1-14,9.4-22.7C177.3,37.3,171.4,38.5,176.8,49.8z"/>
    <path class="st5" d="M129.7,23.8c11.3,4.7,21,6.6,31.8,7.3c10,0.7,12-0.4,4.3,9c-3.6,4.3-8,8-12.9,11.1
      c-11.8,7.4-22.2-7.4-28.2-20.4C119,18.5,118.4,19.1,129.7,23.8z"/>
    <path class="st6" d="M117,52.6c0.8-4.6,1.4-9.7,1.5-15c0.3-8.4-1-8.5,3.6-1.1c2.5,4,5.5,8.4,8.1,11.9c4.5,6,7.8,10,0.5,12
      c-2.4,0.7-4.9,1.3-7.3,1.8C111.6,64.8,115.3,63.1,117,52.6z"/>
  </g>
</g>
</svg>
